<svg xmlns="http://www.w3.org/2000/svg" xmlns:xlink="http://www.w3.org/1999/xlink" xmlns:inkscape="http://www.inkscape.org/namespaces/inkscape" version="1.1" width="1920" height="1080" viewBox="0 0 1920 1080">
<defs>
<clipPath id="clip_1">
<path transform="matrix(1,0,0,-1,0,1080)" d="M0 1080H1920V0H0Z"/>
</clipPath>
<clipPath id="clip_2">
<path transform="matrix(1,0,0,-1,0,1080)" d="M531.488 236.727H1310.66V811.748H531.488Z"/>
</clipPath>
</defs>
<g>
<g inkscape:groupmode="layer" inkscape:label="&#x56FE;&#x5C42; 1">
<g clip-path="url(#clip_1)">
<g>
<g clip-path="url(#clip_2)">
<path transform="matrix(1,0,0,-1,711.4195,432.62629)" d="M0 0C3.305 0 5.139-.086 6.956 .056 7.456 .095 7.903 .813 8.374 1.22 7.845 1.423 7.287 1.856 6.792 1.794 2.381 1.24-2.02 .606-6.421-.026-6.908-.096-7.376-.3-7.853-.441-7.391-.54-6.916-.761-6.468-.717-3.821-.457-1.181-.135 0 0M-80.771-118.913C-81.967-116.425-82.792-114.618-83.74-112.878-83.831-112.711-85.002-112.789-85.146-113.047-86.902-116.196-88.622-119.369-90.165-122.625-90.358-123.034-89.479-123.95-89.097-124.631-86.303-122.712-83.508-120.792-80.771-118.913M221.827 38.688C221.666 39.051 221.506 39.415 221.346 39.778 220.55 39.214 219.011 38.249 219.067 38.145 220.236 35.978 221.586 33.909 222.901 31.82 223.815 33.111 224.602 34.523 225.681 35.656 226.687 36.714 227.96 37.545 229.192 38.358 234.154 41.632 239.152 44.85 244.115 48.121 244.602 48.442 244.937 48.992 245.342 49.435 244.734 49.371 244.037 49.479 243.533 49.217 238.406 46.557 233.344 43.769 228.188 41.167 226.166 40.146 223.953 39.503 221.827 38.688M207.071 76.778C207.412 75.058 207.797 73.118 208.181 71.179 209.704 71.885 211.177 72.747 212.764 73.248 214.163 73.691 215.682 73.849 217.16 73.928 224.949 74.343 232.742 74.688 240.532 75.078 241.227 75.113 241.915 75.298 242.606 75.413 241.948 75.482 241.292 75.586 240.633 75.615 232.672 75.974 224.703 76.209 216.754 76.747 214.54 76.897 212.35 77.837 210.222 78.615 209.214 78.984 208.379 79.827 207.466 80.456 207.344 79.32 207.222 78.184 207.071 76.778M258.929 43.472C258.814 43.634 258.699 43.796 258.583 43.958 258.102 43.639 257.558 43.386 257.149 42.992 252.132 38.16 247.32 33.093 242.058 28.547 239.235 26.108 235.608 24.613 232.444 22.54 231.932 22.205 231.503 20.7 231.781 20.376 233.391 18.504 235.224 16.825 236.981 15.08 237.543 16.61 237.949 18.224 238.712 19.646 239.484 21.086 240.518 22.415 241.596 23.656 246.815 29.666 252.089 35.629 257.341 41.611 257.879 42.224 258.4 42.851 258.929 43.472M331.048 98.689C337.786 102.605 343.644 105.734 349.079 109.479 349.846 110.008 349.16 113.99 348.011 115.524 347.115 116.719 343.471 117.604 342.74 116.891 338.24 112.508 334.141 107.697 330.147 102.832 329.665 102.246 330.622 100.481 331.048 98.689M338.652 87.511C344.798 88.639 350.671 89.781 356.569 90.776 360.418 91.426 360.533 94.097 359.573 96.758 358.578 99.518 356.746 101.972 353.164 100.084 348.019 97.37 342.914 94.573 337.886 91.65 337.129 91.21 336.52 89.888 336.535 88.985 336.544 88.466 337.946 87.971 338.652 87.511M336.577 126.495C334.754 128.257 333.317 130.684 331.376 131.193 329.846 131.594 326.808 130.12 325.988 128.629 323.457 124.019 321.579 119.037 319.66 114.116 319.262 113.095 319.778 111.718 319.873 110.505 321.119 110.936 322.674 111.034 323.556 111.855 326.945 115.009 330.174 118.343 333.341 121.722 334.428 122.883 335.162 124.375 336.577 126.495M307.914 127.049C307.868 127.045 307.822 127.041 307.777 127.038 307.777 124.218 307.701 121.394 307.83 118.58 307.862 117.889 308.609 116.64 308.941 116.668 309.781 116.739 311.029 117.192 311.309 117.839 313.874 123.774 316.672 129.668 318.415 135.852 318.835 137.341 315.993 140.814 313.938 141.676 311.092 142.87 308.961 140.778 308.704 137.481 308.434 134.004 308.177 130.526 307.914 127.049M359.986 81.855C354.233 80.855 348.176 79.864 342.153 78.697 341.047 78.483 340.081 77.55 339.05 76.948 340.087 76.136 341.036 74.787 342.176 74.6 348.234 73.607 354.344 72.94 360.426 72.089 363.727 71.628 365.686 72.899 365.711 76.279 365.735 79.755 364.143 81.968 359.986 81.855M342.5 64.931C341.989 64.716 340.617 64.138 339.244 63.56 340.403 62.541 341.4 61.15 342.748 60.568 348.377 58.137 354.13 55.992 359.801 53.655 363.059 52.312 365.61 53.095 366.428 56.481 367.248 59.877 365.669 62.309 361.903 62.745 355.802 63.452 349.697 64.122 342.5 64.931M299.825 140.244C299.953 145.273 297.792 148.085 294.395 147.948 289.844 147.764 289.681 144.58 290.171 141.203 291.072 134.991 291.996 128.778 293.115 122.603 293.296 121.603 294.528 120.793 295.274 119.896 295.83 120.784 296.716 121.612 296.889 122.569 298.003 128.744 298.962 134.948 299.825 140.244M222.345 119.503C223.287 117.807 223.703 115.837 224.877 115.137 234.706 109.275 244.66 103.619 254.634 98.005 255.302 97.629 256.444 98.097 257.366 98.172 257.099 99.03 257.064 100.101 256.515 100.701 255.405 101.915 254.015 102.873 252.742 103.938 245.482 110.004 238.318 116.194 230.876 122.029 229.474 123.128 226.909 123.224 224.987 122.974 224.04 122.85 223.333 120.879 222.345 119.503M250.459 88.666C251.098 88.891 251.955 89.192 252.811 89.494 252.152 90.491 251.726 91.952 250.799 92.415 240.887 97.372 230.971 102.342 220.847 106.837 219.251 107.546 215.619 106.595 214.67 105.215 212.821 102.528 214.314 99.314 217.305 98.369 228.171 94.934 239.173 91.93 250.459 88.666M259.075-113.736C259.195-114.494 259.314-115.252 259.433-116.01 260.078-115.565 260.825-115.215 261.351-114.657 264.648-111.16 267.437-106.982 271.256-104.219 279.194-98.476 278.927-89.763 280.655-81.691 280.753-81.232 280.62-80.723 280.595-80.238 280.059-80.48 279.379-80.589 279.008-80.986 270.111-90.503 258.575-98.437 259.075-113.736M232.528 78.961C232.529 78.897 232.53 78.832 232.531 78.768 237.343 78.768 242.159 78.659 246.965 78.829 248.585 78.886 250.179 79.65 251.785 80.091 250.378 80.975 249.076 82.32 247.546 82.668 237.534 84.944 227.466 86.976 217.43 89.15 214.137 89.864 210.904 90.435 210.045 85.965 209.378 82.499 212.099 79.972 216.613 79.705 221.914 79.391 227.223 79.203 232.528 78.961M286.873 16.308C287.179 16.308 287.484 16.308 287.79 16.308 287.79 21.78 287.894 27.256 287.712 32.722 287.67 33.986 286.651 35.217 286.082 36.463 285.24 35.44 283.979 34.541 283.637 33.372 282.709 30.203 282.15 26.925 281.482 23.683 279.979 16.386 278.359 9.11 277.065 1.776 276.354-2.254 278.601-4.712 282.536-4.909 286.361-5.1 286.942-2.263 286.894 .885 286.816 6.025 286.873 11.167 286.873 16.308M257.995-105.9C257.8-105.479 257.561-104.962 257.322-104.444 256.777-104.77 256.14-105.004 255.703-105.438 253.816-107.313 251.914-109.182 250.156-111.175 247.11-114.629 243.203-117.744 241.407-121.78 238.757-127.736 237.629-134.371 235.882-140.725 235.669-141.498 235.631-142.319 235.513-143.117 236.263-142.563 237.141-142.121 237.744-141.437 241.479-137.196 244.717-132.399 248.944-128.736 256.037-122.588 255.517-113.87 257.995-105.9M247.137 73.371C247.043 73.1 246.949 72.829 246.855 72.558 236.579 71.95 226.306 71.29 216.025 70.767 212.884 70.607 210.843 69.549 211.009 66.086 211.173 62.681 213.213 61.013 216.467 60.877 217.763 60.823 219.097 61.169 220.381 61.474 229.415 63.615 238.466 65.697 247.449 68.036 249.427 68.551 251.156 70.021 253 71.051 251.046 71.824 249.092 72.598 247.137 73.371M231.881 24.763C233.43 25.353 234.381 25.445 234.926 25.963 243.351 33.99 251.745 42.051 260.053 50.198 260.51 50.646 260.44 52.546 260.134 52.682 259.26 53.069 257.861 53.324 257.152 52.873 247.618 46.805 238.078 40.733 228.799 34.289 227.607 33.46 227.108 30.263 227.675 28.652 228.261 26.988 230.541 25.92 231.881 24.763M277.56 37.896C277.1 38.478 276.236 39.871 276.031 39.78 274.966 39.308 273.667 38.663 273.175 37.705 268.402 28.422 263.722 19.09 259.13 9.716 257.276 5.93 258.613 2.215 262.101 1.2 266.235-.004 267.795 2.638 268.717 5.988 271.132 14.76 273.523 23.538 275.934 32.311 276.416 34.064 276.949 35.803 277.56 37.896M256.265 60.318C256.167 60.791 256.068 61.264 255.97 61.737 254.467 61.737 252.86 62.088 251.476 61.681 241.289 58.692 231.14 55.573 220.995 52.445 217.751 51.445 215.485 49.518 217.11 45.848 218.577 42.535 221.289 41.046 224.837 42.881 234.573 47.913 244.265 53.033 253.94 58.182 254.839 58.661 255.496 59.595 256.265 60.318M355.06-15.176C354.528-11.839 354.082-9.224 353.701-6.598 353.34-4.116 352.391-3.718 350.622-5.602 347.208-9.238 344.137-13.315 340.262-16.371 334.073-21.253 332.167-27.131 334.038-34.54 334.227-35.288 334.382-36.044 334.553-36.797 335.209-36.388 335.98-36.091 336.504-35.554 342.197-29.724 347.88-23.885 353.482-17.97 354.314-17.091 354.716-15.805 355.06-15.176M246.501 10.45C248.058 11.423 249.564 11.84 250.148 12.81 256.131 22.743 262 32.747 267.768 42.806 268.181 43.528 267.555 44.845 267.412 45.885 266.399 45.611 265.016 45.669 264.429 45.013 256.908 36.612 249.402 28.192 242.186 19.531 241.235 18.39 241.301 15.595 242.015 14.1 242.741 12.578 244.85 11.715 246.501 10.45M309.076-55.097C309.076-57.074 308.979-58.245 309.102-59.392 309.233-60.604 309.573-61.794 309.822-62.993 310.704-62.281 311.677-61.656 312.452-60.842 316.453-56.639 320.074-52.004 324.455-48.253 329.706-43.757 332.213-38.673 330.829-31.823 330.578-30.583 330.447-29.318 330.261-28.064 329.239-28.774 328.068-29.34 327.219-30.218 322.61-34.984 318.262-40.018 313.462-44.579 310.078-47.795 308-51.148 309.076-55.097M42.946 55.329C44.761 54.679 45.934 53.863 46.381 54.156 59.839 62.964 73.269 71.832 84.136 83.919 84.71 84.558 84.864 85.575 85.214 86.416 84.301 86.741 83.229 87.552 82.502 87.312 78.304 85.928 73.558 85.13 70.17 82.578 62.514 76.811 55.416 70.272 48.372 63.744 46.31 61.833 45.194 58.903 42.946 55.329M-47.965-71.589C-47.966-71.583-47.859-72.598-47.753-73.614-47.315-73.15-46.818-72.729-46.448-72.217-34.595-55.805-22.751-39.386-10.919-22.959-10.446-22.302-10.103-21.551-9.699-20.843-10.564-20.941-11.54-20.814-12.275-21.176-15.396-22.711-18.659-24.087-21.485-26.07-36.922-36.909-45.384-51.958-47.965-71.589M380.018-296.583C380.649-296.418 382.725-296.248 384.442-295.373 398.799-288.055 413.105-280.638 427.372-273.148 428.613-272.496 429.957-271.265 430.371-270.011 430.906-268.396 430.55-266.487 430.578-264.705 429.25-265.18 427.846-265.511 426.604-266.152 413.914-272.702 401.258-279.316 388.577-285.884 381.524-289.537 374.666-290.31 368.266-284.417 367.76-283.952 366.882-283.891 366.177-283.643 366.08-284.292 365.915-284.939 365.896-285.591 365.746-290.73 372.566-296.596 380.018-296.583M-84.241-96.503C-83.703-99.75-83.49-103.097-82.537-106.217-81.542-109.471-79.833-112.506-78.437-115.636-76.017-113.462-73.612-111.272-71.174-109.118-67.797-106.135-67.125-103.154-68.487-98.368-74.66-76.669-74.372-55.272-62.447-35.246-55.524-23.62-45.199-15.59-33.406-9.294-32.492-8.806-31.71-8.074-30.866-7.455-31.942-7.745-33.093-7.877-34.083-8.348-52.673-17.192-66.235-31.167-75.4-49.432-82.822-64.223-85.373-79.97-84.241-96.503M167.266-202.444C167.089-200.934 166.994-200.127 166.899-199.321 165.962-199.88 164.861-200.274 164.111-201.021 153.31-211.779 140.823-219.681 126.111-224.023 124.661-224.451 122.86-226.128 122.532-227.532 120.039-238.198 117.862-248.937 115.633-259.663 115.486-260.368 115.722-261.153 115.78-261.901 116.368-261.619 117.002-261.403 117.539-261.045 135.491-249.082 150.873-234.602 161.421-215.543 163.816-211.215 165.485-206.485 167.266-202.444M295.457-13.269C258.698-13.197 221.917 14.03 209.061 53.034 204.685 66.31 202.837 79.893 204.859 93.856 204.975 94.655 204.832 95.493 204.809 96.313 204.352 95.564 203.815 94.851 203.466 94.055 203.205 93.461 203.205 92.757 203.058 92.108 192.722 46.388 221.758-2.427 267.591-16.048 293.235-23.67 317.268-20.32 339.2-4.512 340.307-3.714 341.156-2.56 342.125-1.571 340.953-2.053 339.718-2.423 338.618-3.035 326.137-9.976 312.769-13.406 295.457-13.269M379.315-285.735C380.436-285.463 382.354-285.359 383.919-284.563 398.544-277.121 413.128-269.599 427.676-262.005 431.006-260.267 431.664-257.228 430.465-253.88 428.203-247.564 419.142-243.87 413.097-246.79 405.477-250.472 397.878-254.198 390.336-258.034 383.831-261.342 377.358-264.722 370.989-268.281 367.276-270.356 364.122-273.501 366.646-277.939 369.122-282.293 373.032-285.539 379.315-285.735M-114.697-331.705C-112.385-329.711-111.482-329.02-110.68-328.228-70.781-288.83-30.931-249.383 9.062-210.082 13.145-206.069 8.745-204.869 7.39-202.64 5.399-199.366 4.112-202.345 2.966-203.441-37.422-242.087-77.773-280.772-118.081-319.501-119.245-320.618-120.975-322.851-120.588-323.577-119.045-326.47-116.768-328.972-114.697-331.705M111.087-295.054C111.16-295.063 111.233-295.072 111.306-295.08 111.306-296.576 111.218-298.079 111.336-299.566 111.421-300.625 111.785-301.661 112.024-302.707 112.829-302.172 113.728-301.737 114.424-301.086 118.547-297.225 122.661-293.353 126.707-289.412 152.468-264.314 168.264-233.3 179.864-199.805 182.091-193.374 184.253-186.919 186.416-180.465 186.617-179.864 186.606-179.192 186.693-178.553 186.066-178.867 185.3-179.044 184.834-179.517 182.036-182.359 179.371-185.333 176.536-188.136 173.571-191.068 171.542-194.138 170.43-198.486 168.565-205.784 166.026-213.17 162.312-219.688 151.733-238.258 136.307-252.351 118.505-263.884 115.601-265.766 113.921-267.837 113.598-271.274 112.852-279.209 111.934-287.129 111.087-295.054M293.53-110.815C292.506-103.406 286.628-102.932 282.812-100.229 279.665-98.001 278.31-100.945 276.822-102.584 260.844-120.177 244.836-137.746 229.123-155.574 225.446-159.747 222.58-164.722 219.842-169.608 217.634-173.548 219.723-178.419 224.509-181.611 228.228-184.091 230.158-180.628 232.552-178.879 233.082-178.493 233.493-177.942 233.95-177.459 251.961-158.369 270.048-139.348 287.9-120.11 290.481-117.328 291.939-113.504 293.53-110.815M-70.283-73.704C-68.719-81.82-67.183-89.941-65.574-98.048-65.048-100.697-64.193-100.914-62.248-98.733-54.884-90.478-51.847-80.893-50.524-69.907-47.664-46.159-35.652-28.063-13.182-18.489-7.108-15.901-2.053-13.046 1.443-7.548 2.268-6.251 2.987-4.888 3.755-3.555 2.3-3.42 .844-3.155-.609-3.169-38.648-3.525-69.425-35.024-70.283-73.704M372.712-28.876C370.056-25.624 367.615-22.505 365.034-19.508 362.086-16.085 359.578-16.162 356.23-19.681 339.835-36.917 322.991-53.728 306.724-71.081 302.978-75.076 300.817-80.579 298.043-85.454 295.39-90.118 297.915-93.349 301.38-96.11 304.945-98.95 308.234-97.112 310.759-94.657 329.718-76.218 348.613-57.711 367.299-38.996 369.603-36.688 370.552-33.029 372.712-28.876M111.661-308.578C112.134-322.284 116.224-333.128 125.398-341.971 128.485-344.946 130.228-344.706 132.887-341.63 143.207-329.694 151.29-316.336 157.619-302.001 178.7-254.255 194.217-204.454 211.349-155.252 211.656-154.372 211.603-153.366 211.718-152.419 210.925-152.914 209.995-153.275 209.359-153.924 199.637-163.854 188.894-173.112 187.009-188.191 186.768-190.125 185.724-191.951 185.119-193.848 171.16-237.636 149.26-276.334 113.305-306.066 112.291-306.905 111.793-308.368 111.661-308.578M3.932-125.927C4.568-185.583 47.853-217.447 93.769-223.419 122.686-227.18 146.234-215.873 165.957-194.9 193.759-165.337 222.069-136.253 250.087-106.894 284.97-70.34 319.849-33.78 354.576 2.922 365.269 14.223 371.858 27.654 373.165 43.375 373.251 44.417 372.989 45.488 372.889 46.545 372.544 45.52 372.085 44.519 371.872 43.468 366.667 17.822 352.931-1.532 329.737-14.04 327.312-15.348 325.116-17.285 323.194-19.294 267.884-77.13 212.673-135.062 157.323-192.861 139.576-211.394 117.811-219.457 92.235-215.755 64.23-211.701 25.188-193.078 14.637-150.205 7.446-120.987 11.43-94.439 33.309-72.138 44.845-60.379 56.262-48.505 67.755-36.705 111.754 8.471 155.77 53.632 199.738 98.838 201.209 100.35 202.44 102.183 203.432 104.053 205.998 108.89 208.367 113.831 210.815 118.731 211.097 119.296 211.375 119.863 211.656 120.428 210.992 120.139 210.162 120.013 209.688 119.535 203.135 112.929 196.608 106.296 190.117 99.63 136.259 44.315 82.507-11.103 28.499-66.271 12.136-82.985 3.997-102.698 3.932-125.927M192.496-365.738C193.341-365.784 195.334-365.932 197.328-365.994 203.571-366.187 203.508-366.158 202.231-360.119 195.686-329.192 194.409-298.057 200.761-267.041 205.887-242.012 212.39-217.265 218.156-192.364 218.534-190.731 218.074-188.778 217.586-187.096 216.671-183.948 213.95-180.487 214.651-177.873 216.375-171.451 218.209-164.098 222.545-159.541 231.196-150.447 232.792-139.001 236.364-128.105 236.539-127.571 236.378-126.927 236.373-126.334 235.826-126.682 235.185-126.94 234.748-127.394 231.057-131.227 227.596-135.306 223.686-138.897 219.366-142.864 217.018-147.688 215.107-153.146 200.299-195.44 185.51-237.743 170.215-279.862 162.135-302.112 151.934-323.395 136.608-341.794 131.608-347.796 131.498-347.825 138.368-351.786 154.752-361.234 172.657-364.972 192.496-365.738M212.047-365.485C229.974-364.759 263.539-358.144 279.74-352.62 283.819-351.229 281.621-349.785 280.387-348.18 267.472-331.395 256.133-313.637 247.493-294.265 239.367-276.047 232.861-257.226 235.024-236.971 237.171-216.863 240.725-196.905 243.598-176.872 243.817-175.339 243.528-173.733 243.476-172.161 242.196-173.071 240.868-173.922 239.66-174.919 239.182-175.313 239.098-176.193 238.614-176.572 234.762-179.589 231.229-183.549 226.841-185.164 223.788-186.288 222.68-187.363 221.99-190.119 217.556-207.827 212.971-225.497 208.541-243.206 198.937-281.606 196.469-320.21 205.081-359.186 206.103-363.812 207.002-367.358 212.047-365.485M-151.13-244.174C-150.959-247.023-150.826-251.511-150.398-255.97-148.218-278.671-140.625-299.272-126.454-317.318-124.652-319.612-123.452-320.628-120.753-317.99-106.123-303.693-91.313-289.578-76.474-275.496-74.552-273.672-74.221-272.483-75.879-270.168-96.876-240.837-103.601-207.903-98.841-172.678-96.964-158.787-92.579-145.238-89.431-131.512-89.194-130.481-89.605-128.329-89.915-128.29-95.091-127.641-94.086-124.223-92.848-121.297-91.239-117.495-88.776-114.052-87.195-110.241-86.404-108.334-86.753-105.955-86.587-103.789-87.827-105.029-89.42-106.068-90.254-107.538-106.982-137.006-123.474-166.608-140.345-195.993-148.687-210.521-150.732-226.276-151.13-244.174M236.73-238.145C237.042-238.199 237.353-238.253 237.665-238.307 237.665-241.128 237.53-243.957 237.687-246.769 238.63-263.639 243.92-279.321 250.896-294.531 259.255-312.757 270.175-329.379 281.911-345.591 285.197-350.13 287.676-350.48 292.347-348.806 310.491-342.305 328.768-336.176 346.962-329.812 352.371-327.921 352.318-327.779 348.364-323.951 328.967-305.175 310.859-285.3 294.705-263.596 275.406-237.666 264.246-209.624 268.647-176.64 269.986-166.603 270.28-156.426 271-146.309 271.064-145.405 270.735-144.474 270.588-143.556 270.029-143.806 269.319-143.915 268.934-144.328 262.358-151.384 255.79-158.45 249.321-165.605 248.611-166.39 248.348-167.705 248.163-168.821 244.327-191.925 240.532-215.036 236.73-238.145M309.076-133.073C309.076-137.397 309.403-141.75 309.019-146.039 307.309-165.158 312.208-182.441 322.224-198.705 336.149-221.318 352.887-241.712 370.259-261.666 372.171-263.861 373.687-263.343 375.824-262.25 387.797-256.126 399.74-249.932 411.874-244.139 422.081-239.266 434.052-247.144 434.016-258.378 434.008-260.706 433.809-263.052 434.028-265.358 434.535-270.719 432.061-274.19 427.53-276.631 421.095-280.098 414.766-283.761 408.303-287.173 398.79-292.195 398.845-292.046 406.285-299.615 408.723-302.095 410.669-302.793 413.966-300.966 429.956-292.109 446.118-283.565 462.146-274.775 467.196-272.006 467.09-271.817 462.299-268.361 423.399-240.297 389.539-207.204 362.527-167.448 350.071-149.115 338.459-130.246 336.23-107.362 335.409-98.932 334.609-90.499 333.733-82.074 333.623-81.018 333.107-80.004 332.78-78.97 331.979-79.525 331.103-79.998 330.391-80.649 324.131-86.366 317.815-92.026 311.73-97.924 310.405-99.208 309.236-101.361 309.193-103.143 308.951-113.115 309.076-123.095 309.076-133.073M306.056-134.16C306.056-124.349 305.948-114.535 306.107-104.726 306.173-100.612 304.737-99.824 301.002-101.156 295.553-103.099 292.675-100.914 292.945-95.045 293.32-86.868 295.574-78.929 301.312-73.183 306.455-68.034 306.133-62.336 306.022-56.255 306.009-55.525 305.594-54.802 305.366-54.076 304.708-54.501 303.936-54.817 303.408-55.366 297.42-61.604 291.461-67.869 285.524-74.155 284.975-74.736 284.354-75.465 284.235-76.2 283.388-81.438 282.585-86.688 282.013-91.96 281.953-92.508 283.581-93.861 284.276-93.764 287.962-93.248 289.933-94.971 291.04-98.205 291.469-99.458 291.716-100.846 292.428-101.919 297.365-109.355 297.192-113.73 291.291-120.336 287.193-124.923 282.669-129.156 278.845-133.953 276.804-136.512 274.836-139.843 274.562-142.977 273.116-159.524 271.931-176.108 271.269-192.704 270.994-199.614 271.519-206.735 272.932-213.499 276.646-231.278 286.309-246.297 296.554-260.905 312.953-284.287 332.862-304.591 353.075-324.602 353.996-325.513 356.238-326.122 357.352-325.653 373.127-319.022 388.822-312.2 404.482-305.302 405.005-305.072 405.47-303.194 405.113-302.708 398.514-293.745 397.062-293.387 386.753-297.701 385.682-298.149 384.584-298.547 383.473-298.883 373.112-302.016 362.878-294.538 362.787-283.77 362.764-281.11 362.327-278.343 362.91-275.817 363.55-273.048 364.478-269.659 366.49-268.053 369.53-265.624 369.134-264.179 366.797-262.002 365.948-261.211 365.206-260.303 364.441-259.426 347.935-240.471 332.139-220.993 319.23-199.324 310.276-184.296 304.493-168.509 305.988-150.618 306.443-145.168 306.058-139.648 306.056-134.16M336.862-82.345C336.948-84.038 337.002-85.033 337.049-86.029 338.151-109.603 343.305-131.791 356.091-152.236 385.108-198.638 422.736-236.589 467.25-267.991 468.587-268.935 471.806-268.788 473.217-267.809 486.457-258.624 499.437-249.066 512.628-239.807 516.196-237.304 515.675-235.967 512.509-233.485 483.153-210.473 455.275-185.785 429.577-158.728 400.209-127.807 372.439-95.811 363.063-52.37 362.351-49.072 361.105-50.173 359.564-51.72 353.701-57.611 347.985-63.666 341.868-69.283 337.662-73.145 334.54-76.996 336.862-82.345M-13.68-139.192C-14.878-159.394-7.326-177.685 4.923-194.359 13.863-206.529 13.888-206.422 24.072-195.246 25.738-193.418 25.484-192.446 24.033-190.764 13.831-178.931 7.213-165.214 3.865-150.05-2.909-119.367 1.2-90.926 23.631-67.381 52.552-37.023 81.993-7.159 111.218 22.91 131.628 43.911 151.877 65.074 172.522 85.842 190.441 103.869 207.088 123.186 227.882 138.295 248.135 153.01 270.281 159.286 294.691 154.026 335.578 145.216 360.53 119.437 371.145 79.282 371.737 77.042 372.926 74.535 374.629 73.08 390.944 59.146 407.178 45.098 423.916 31.683 463.665-.176 505.553-29.101 548.272-56.781 560.492-64.699 574.044-70.568 587.009-77.33 587.958-77.824 589.104-77.94 590.158-78.232 589.983-77.132 589.848-76.024 589.617-74.937 589.48-74.293 589.196-73.68 588.97-73.055 581.1-51.267 567.12-33.702 549.277-19.624 492.341 25.297 434.958 69.65 377.752 114.228 356.637 130.682 334.188 144.735 308.559 153.208 290.84 159.065 272.639 163.291 254.133 160.138 226.372 155.408 201.248 142.663 175.721 131.398 175.444 131.275 175.412 129.421 175.845 129.05 180.507 125.056 181.638 119.985 179.403 114.633 177.439 109.932 175.176 104.99 171.787 101.313 156.353 84.573 141.108 67.576 124.628 51.897 86.129 15.267 49.033-22.586 15.467-63.867-2.287-85.703-14.497-109.342-13.68-139.192M355.804-1.052C356.372-4.785 356.822-7.739 357.271-10.693 357.595-12.827 358.104-14.025 360.675-12.476 363.231-10.935 365.657-11.039 367.133-14.454 368.145-16.797 369.895-18.811 371.04-21.109 372.262-23.563 373.74-26.102 374.082-28.737 374.826-34.471 371.586-38.748 368.064-42.933 366.645-44.619 365.076-47.425 365.522-49.243 370.544-69.686 377.004-89.718 390.059-106.596 402.456-122.624 415.182-138.487 428.858-153.421 455.314-182.312 484.798-208.008 515.566-232.23 517.265-233.567 518.619-234.988 521.059-232.903 540.861-215.984 559.488-198.019 573.767-175.98 575.771-172.888 576.01-171.246 572.432-169.061 553.139-157.278 533.742-145.63 514.919-133.126 498.051-121.922 480.845-110.859 465.626-97.623 437.043-72.763 415.036-42.275 395.358-9.983 389.105 .279 380.657 9.208 373.173 18.716 371.372 21.003 370.334 20.748 368.709 18.03 365.312 12.351 361.259 7.066 357.491 1.607 356.792 .595 356.171-.471 355.804-1.052M595.46-105.193C594.891-100.736 594.032-94.156 593.215-87.57 592.815-84.342 591.29-82.387 588.112-81.002 580.508-77.686 572.986-74.118 565.685-70.182 528.835-50.318 495.268-25.413 461.777-.612 432.283 21.23 404.326 45.146 375.689 68.143 374.921 68.76 374.134 69.354 373.355 69.958 373.469 68.879 373.433 67.759 373.719 66.728 377.43 53.394 377.256 40.193 372.869 27 372.41 25.619 373.216 23.312 374.208 22.034 381.724 12.348 389.853 3.112 396.97-6.85 404.88-17.923 411.414-29.988 419.442-40.967 439.637-68.582 461.527-94.703 490.641-113.583 517.965-131.302 545.497-148.701 572.888-166.317 576.479-168.627 578.294-168.425 580.604-164.24 590.406-146.485 594.417-127.364 595.46-105.193M177.363 117.8C177.264 125.833 172.822 129.004 166.598 127.025 165.494 126.675 164.386 126.274 163.367 125.734 139.584 113.136 115.809 100.521 92.049 87.88 91.045 87.346 90.128 86.602 89.278 85.837 79.933 77.433 70.978 68.539 61.151 60.745 54.47 55.446 45.642 52.699 39.415 47.014 26.536 35.256 14.748 22.302 2.529 9.823 1.96 9.242 1.558 8.497 1.078 7.829 1.944 7.969 2.83 8.04 3.674 8.263 6.983 9.14 11.288 11.35 12.995 7.469 13.968 5.259 11.227 1.41 10.131-1.691 10.027-1.985 9.714-2.203 9.508-2.464-9.365-26.306-29.391-49.297-44.894-75.634-48.824-82.312-51.585-89.858-56.369-95.813-64.142-105.489-73.164-114.159-81.595-123.313-82.785-124.606-83.886-126.119-84.563-127.725-92.402-146.315-96.224-165.811-97.146-185.883-98.51-215.55-91.339-242.869-74.279-267.418-72.515-269.956-71.434-270.684-68.79-268.126-45.591-245.689-22.288-223.358 1.117-201.136 3.699-198.684 2.997-197.312 1.535-194.586-3.856-184.537-10.646-174.704-13.434-163.895-21.833-131.328-15.834-100.709 4.428-73.671 33.131-35.368 65.994-.736 100.29 32.571 119.026 50.768 137.889 68.844 156.204 87.457 162.913 94.275 168.378 102.362 174.047 110.135 175.925 112.711 176.663 116.117 177.363 117.8M14.398-125.706C14.414-165.804 38.321-197.352 77.975-209.508 106.412-218.226 132.036-213.676 153.5-192.38 168.966-177.035 183.825-161.077 198.915-145.354 238.061-104.567 277.189-63.763 316.29-22.933 317.163-22.023 317.638-20.732 318.298-19.618 317.096-19.677 315.835-19.519 314.702-19.829 302.47-23.181 290.14-23.71 277.639-21.545 225.134-12.45 189.481 40.541 199.682 90.555 199.875 91.498 199.767 92.503 199.799 93.479 198.897 92.917 197.84 92.509 197.118 91.772 188.036 82.504 179.008 73.183 169.955 63.887 125.386 18.117 80.925-27.76 36.176-73.353 21.76-88.041 14.433-105.255 14.398-125.706M89.054-404.251C130.371-405.407 171.534-402.912 212.448-397.125 277.666-387.901 340.577-369.913 400.925-343.872 491.615-304.739 520.774-269.669 567.863-191.626 568.383-190.764 568.508-189.663 568.817-188.673 568.251-189.269 567.638-189.829 567.124-190.467 539.524-224.709 505.601-251.606 468.367-274.441 412.448-308.736 352.181-333.255 289.694-352.66 256.647-362.923 223.211-370.526 188.267-368.551 171.141-367.584 154.693-363.943 139.425-355.807 118.575-344.697 107.907-327.649 108.168-303.72 108.419-280.627 112.35-258.113 117.599-235.748 118.318-232.685 119.01-229.616 119.714-226.549 116.697-226.622 113.675-226.605 110.665-226.781 80.617-228.543 54.891-218.005 32.335-198.914 28.918-196.021 27.258-195.994 24.078-199.152-19.853-242.77-63.932-286.24-107.976-329.744-113.341-335.044-113.425-335.12-118.951-329.704-147.912-301.321-156.702-266.212-153.117-226.995-153.025-225.989-153.16-224.962-153.189-223.946-153.714-224.757-154.393-225.507-154.739-226.388-160.93-242.146-167.712-257.708-173.073-273.744-179.361-292.55-175.877-310.608-165.227-327.102-156.78-340.186-144.223-348.767-130.811-356.039-104.523-370.291-76.502-380.154-47.85-388.448-20.484-396.368 7.448-401.53 35.725-403.968 53.378-405.49 71.269-404.251 89.054-404.251M211.075 106.796C216.408 111.704 217.877 111.904 224.712 108.594 230.228 105.923 235.724 103.212 241.258 100.582 241.869 100.292 242.677 100.418 243.394 100.351 242.909 100.79 242.482 101.331 241.928 101.651 236.334 104.888 230.685 108.031 225.12 111.314 219.967 114.354 218.309 119.309 220.93 123.371 223.626 127.552 228.553 127.804 233.487 123.989 234.535 123.178 235.511 122.275 236.54 121.437 243.083 116.109 249.632 110.787 256.179 105.462 256.738 104.934 257.298 104.405 257.857 103.876 262.073 98.784 261.771 97.072 256.179 94.43 256.038 94.363 255.709 94.394 255.708 94.374 255.631 90.772 257.18 86.565 252.101 84.853 254.834 82.245 257.165 79.609 252.769 76.409 252.761 76.403 253.309 75.439 253.729 75.075 257.623 71.702 256.94 68.654 253.13 65.793 243.429 63.613 233.77 61.213 224.007 59.36 220.117 58.621 215.997 59.118 211.984 58.97 211.515 58.952 210.626 58.274 210.671 58.125 211.388 55.752 212.226 53.415 213.036 51.069 214.294 52.012 215.462 53.128 216.835 53.853 218.432 54.697 220.184 55.276 221.913 55.837 232.29 59.203 242.68 62.53 253.066 65.871 261.092 64.6 258.611 55.266 263.822 51.817 263.985 51.709 263.747 51.089 263.911 50.87 264.366 50.267 264.851 49.404 265.471 49.254 271.628 47.773 272.79 45.311 269.64 39.861 264.483 30.94 259.291 22.038 254.03 13.179 253.203 11.788 252.167 10.006 250.825 9.523 243.389 6.844 248.986 5.43 251.285 3.723 252.215 3.033 253.228 2.434 254.264 1.914 254.753 1.669 255.385 1.711 255.952 1.622 255.905 2.099 255.764 2.588 255.825 3.051 256.237 6.195 256.007 9.643 257.261 12.416 261.23 21.198 265.802 29.707 270.049 38.366 271.551 41.427 273.311 44.181 277.199 42.744 281.078 41.31 280.76 37.912 279.875 34.715 277.04 24.474 274.161 14.244 271.145 4.055 270.652 2.387 269.621 .717 268.403-.526 267.319-1.632 265.631-2.147 264.21-2.923 266.027-3.714 267.811-4.595 269.668-5.273 271.851-6.07 274.085-6.732 276.322-7.362 277.059-7.57 277.875-7.497 278.655-7.552 278.183-7.087 277.748-6.577 277.233-6.166 273.973-3.559 273.363-.161 274.194 3.706 276.321 13.608 278.501 23.499 280.51 33.425 281.188 36.769 282.13 40.029 286.184 39.556 290.043 39.104 290.844 35.822 290.767 32.37 290.529 21.727 290.306 11.084 290.09 .44 290.007-3.63 288.35-6.585 284.312-7.92 283.718-8.117 283.154-8.401 282.575-8.645 283.19-8.802 283.797-9.004 284.421-9.108 297.776-11.336 311.055-10.979 323.802-6.279 356.195 5.665 367.293 24.395 369.868 51.856 369.944 52.664 369.777 53.494 369.723 54.314 369.16 53.803 368.539 53.342 368.044 52.772 365.565 49.92 362.739 49.164 359.131 50.695 353.166 53.226 347.097 55.511 341.075 57.906 338.128 59.078 335.384 60.809 336.239 64.375 337.1 67.965 340.346 68.244 343.505 67.914 349.621 67.275 355.749 66.711 361.84 65.883 363.567 65.648 365.282 64.77 366.817 63.872 367.874 63.253 368.612 62.089 369.492 61.168 369.65 62.719 369.891 64.266 369.942 65.82 369.986 67.144 369.889 68.487 369.706 69.801 369.574 70.753 369.199 71.671 368.933 72.604 368.24 72.077 367.609 71.423 366.841 71.049 365.248 70.274 363.517 68.937 361.959 69.082 354.517 69.774 347.072 70.66 339.731 72.03 338.212 72.314 336.376 74.823 336.091 76.539 335.868 77.882 337.65 80.771 338.831 80.939 347.552 82.181 355.992 86.407 365.128 83.782 365.577 83.653 366.139 83.914 366.648 83.993 365.738 86.822 364.829 89.65 363.919 92.478 362.978 91.494 362.069 90.478 361.084 89.541 360.613 89.093 360.04 88.571 359.443 88.461 352.269 87.139 345.109 85.655 337.875 84.829 336.528 84.675 334.13 86.993 333.584 88.627 333.123 90.005 334.155 93.015 335.373 93.632 342.509 97.244 349.894 100.365 357.194 103.651 357.557 103.814 357.92 103.976 358.283 104.139 356.839 106.542 355.396 108.945 353.953 111.348 353.303 110.237 352.784 109.017 351.968 108.044 351.137 107.052 350.119 106.124 349.003 105.479 344.255 102.731 339.575 99.791 334.577 97.586 332.78 96.793 328.915 97.107 328.203 98.269 327.141 100.003 327.232 103.383 328.278 105.256 330.022 108.381 332.703 111.091 335.373 113.562 338.292 116.262 341.657 118.477 344.794 120.945 345.146 121.222 345.576 122.047 345.475 122.154 343.548 124.211 341.547 126.199 339.561 128.201 339.124 126.734 338.73 125.253 338.232 123.807 337.966 123.032 337.675 122.173 337.133 121.602 332.894 117.143 328.796 112.51 324.174 108.483 322.92 107.391 319.369 107.344 318.06 108.355 316.759 109.36 316.098 112.565 316.652 114.338 318.182 119.229 320.175 124.049 322.628 128.547 323.932 130.939 326.564 132.609 328.608 134.592 329.063 135.035 329.566 135.428 330.048 135.845 327.261 137.634 324.475 139.424 321.688 141.213 321.714 139.626 321.8 138.037 321.741 136.453 321.71 135.638 321.535 134.786 321.232 134.029 318.883 128.175 316.744 122.211 313.94 116.58 313.152 114.997 310.154 113.343 308.564 113.665 307.037 113.975 304.99 116.789 304.964 118.529 304.862 125.329 305.324 132.152 305.925 138.936 306.068 140.547 307.379 142.192 308.5 143.532 309.269 144.45 310.638 144.867 311.738 145.507 310.319 146.247 308.931 147.059 307.469 147.702 306.413 148.167 305.269 148.453 304.144 148.738 303.046 149.017 301.922 149.194 300.81 149.416 301.234 148.318 301.836 147.253 302.043 146.116 302.421 144.038 302.971 141.87 302.73 139.825 302.051 134.054 300.932 128.337 300.137 122.579 299.719 119.552 298.979 116.767 295.348 116.722 291.588 116.675 290.368 119.443 289.883 122.665 288.942 128.906 287.579 135.123 287.245 141.396 287.098 144.14 288.958 147.034 290.11 149.775 290.416 150.503 291.475 150.914 292.187 151.471 291.21 151.654 290.239 151.899 289.253 152.011 265.143 154.74 243.828 148.56 225.697 132.135 218.088 125.243 212.722 117.103 211.075 106.796 209.874 101.706 208.659 96.618 207.549 91.509 207.518 91.367 208.645 90.69 209.168 90.758 211.981 91.123 214.89 92.389 217.552 91.973 225.218 90.775 232.779 88.905 240.39 87.342 241.331 87.149 242.323 87.211 243.291 87.156 242.349 87.598 241.446 88.176 240.459 88.462 233.631 90.439 226.769 92.299 219.95 94.306 212.248 96.573 210.818 98.659 211.075 106.796M91.32-409.144C23.778-411.335-41.173-399.461-103.496-373.51-120.558-366.406-137.107-358.369-151.977-347.108-175.953-328.951-185.609-298.157-176.614-270.635-166.659-240.177-153.266-211.208-138.063-183.155-122.706-154.817-105.934-127.247-89.885-99.282-88.798-97.388-87.888-94.941-88.056-92.844-91.315-52.17-63.316-7.092-12.707 3.085-10.177 3.594-7.498 5.177-5.662 7.028 8.865 21.674 23.227 36.484 37.559 51.322 38.726 52.53 39.332 54.297 40.135 55.838 42.161 59.721 43.372 64.393 46.312 67.36 52.849 73.956 60.05 79.947 67.355 85.711 72.691 89.92 78.908 92.005 86.02 91.052 88.018 90.784 90.465 91.846 92.337 92.934 133.229 116.717 175.921 136.63 219.648 154.707 254.158 168.973 287.236 166.63 320.851 153.054 344.745 143.404 365.578 128.956 385.705 113.314 440.342 70.851 495.047 28.473 549.408-14.34 569.297-30.005 585.069-49.185 593.536-73.586 603.004-100.872 599.856-127.619 590.122-154.075 578.579-185.448 559.807-212.671 541.416-240.24 508.625-289.398 462.665-321.607 409.483-344.663 346.202-372.097 280.526-391.454 212.163-401.304 203.607-402.537 195.028-403.803 186.415-404.409 154.728-406.635 123.022-408.59 91.323-410.647 91.322-410.146 91.321-409.645 91.32-409.144"/>
<path transform="matrix(1,0,0,-1,951.5596,295.377)" d="M0 0C-1.544-1.281-3.837-2.284-3.929-3.46-4.087-5.465-3.47-8.182-2.115-9.543 4.668-16.358 11.769-22.86 18.839-29.384 19.685-30.164 21.024-30.409 22.134-30.902 21.947-29.581 22.185-27.964 21.505-26.986 16.016-19.094 10.417-11.277 4.687-3.558 3.68-2.201 1.907-1.412 0 0M16.039-31.787C9.785-25.632 3.533-19.476-2.725-13.326-3.553-12.512-4.505-11.808-5.242-10.922-8.275-7.28-8.161-2.398-5.046 .292-1.746 3.142 3.016 2.997 6.087-.679 9.809-5.133 13.034-10.002 16.453-14.708 18.896-18.071 21.592-21.298 23.615-24.9 24.78-26.972 24.83-29.67 25.382-32.087 22.827-32.516 20.272-32.945 17.717-33.373 17.158-32.844 16.598-32.316 16.039-31.787"/>
<path transform="matrix(1,0,0,-1,768.9792,818.8808)" d="M0 0C.102 .043 1.174 .491 2.245 .939 1.219 1.233 .209 1.7-.835 1.796-14.692 3.071-28.552 4.307-42.416 5.502-43.302 5.578-44.223 5.239-45.128 5.093-44.469 4.732-43.835 4.114-43.148 4.048-29.134 2.695-15.114 1.405 0 0M4.39-9.201C4.611-9.572 4.833-9.943 5.054-10.314 7.419-9.014 11.372-8.092 11.791-6.329 12.486-3.412 11.104 .108 10.136 3.231 9.903 3.984 7.867 4.179 6.659 4.63 6.373 3.497 5.761 2.334 5.861 1.236 6.169-2.174 5.013-3.67 1.398-3.3-13.953-1.728-29.308-.174-44.681 1.165-48.677 1.513-49.694 3.811-48.648 6.786-47.458 10.171-49.444 10.303-51.166 9.462-53.007 8.563-55.106 6.772-55.661 4.938-57.046 .355-53.857-3.173-48.084-3.791-30.6-5.663-13.103-7.407 4.39-9.201M3.893-12.261C-13.085-10.428-31.613-8.589-50.093-6.361-58.453-5.352-61.631 3.549-56.382 10.219-55.902 10.829-55.492 11.493-55.05 12.133-55.862 12.161-56.686 12.289-57.485 12.201-65.197 11.351-72.427 9.757-75.016 .896-75.178 .342-76.134 .019-76.721-.411-76.992 .306-77.584 1.071-77.484 1.732-76.655 7.19-73.304 11.483-68.329 12.523-60.642 14.129-52.551 15.251-44.77 14.68-26.059 13.306-7.387 11.126 11.209 8.603 16.268 7.917 21.649 5.698 25.677 2.611 28.701 .293 29.941-4.475 31.637-8.302 31.997-9.115 30.892-10.576 30.462-11.738 29.868-10.756 28.829-9.808 28.751-8.786 28.196-1.518 23.512 1.956 17.275 4.057 16.397 4.353 15.398 4.294 14.455 4.4 14.623 3.503 14.717 2.585 14.971 1.713 17.549-7.122 13.84-12.591 3.893-12.261"/>
<path transform="matrix(1,0,0,-1,976.3516,352.9651)" d="M0 0C-.042-12.132 6.24-23.757 16.62-30.081 27.169-36.508 38.23-37.803 49.242-31.51 59.567-25.609 63.942-16.118 63.872-4.422 63.867-3.601 63.706-2.782 63.618-1.962 63.432-2.85 63.168-3.729 63.072-4.626 61.346-20.755 48.805-31.127 33.103-28.698 20.9-26.809 12.706-19.502 8.701-7.788 1.885 12.145 16.603 30.17 37.46 27.555 38.169 27.466 38.912 27.648 39.64 27.704 38.896 28.052 38.181 28.498 37.403 28.732 18.616 34.378 .07 20.123 0 0M10.181 1.761C10.152-13.394 22.182-25.875 36.935-25.995 50.226-26.103 60.051-16.144 60.025-2.59 59.995 12.359 47.582 25.014 32.945 25.019 19.977 25.023 10.207 15.041 10.181 1.761M-3.029-.318C-3.067 18.307 10.709 32.562 28.966 32.789 49.141 33.04 67.011 14.955 66.922-5.624 66.844-23.389 52.679-38.382 36.009-38.342 14.26-38.289-2.985-21.492-3.029-.318"/>
<path transform="matrix(1,0,0,-1,1006.5865,417.2303)" d="M0 0H.943C.943-5.469 .71-10.951 1.026-16.401 1.231-19.927 3.711-21.682 7.238-21.257 10.861-20.821 11.197-18.065 10.612-15.271 8.51-5.228 6.313 4.796 3.988 14.79 3.706 16 2.428 16.979 1.611 18.065 1.074 16.851 .12 15.652 .074 14.419-.107 9.618 0 4.807 0 0M-3.003 .526C-3.003 5.513-3.358 10.538-2.829 15.468-2.616 17.453-.465 19.231 .804 21.103 2.777 19.671 6.037 18.574 6.512 16.752 9.315 5.999 11.611-4.895 13.773-15.802 14.643-20.187 11.61-23.916 7.49-24.456 2.86-25.062-1.849-21.439-2.153-16.43-2.495-10.797-2.232-5.127-2.232 .526Z"/>
<path transform="matrix(1,0,0,-1,1018.8022,400.964)" d="M0 0C.919-3.818 1.742-7.186 2.539-10.56 4.019-16.829 5.337-23.141 7.013-29.357 7.977-32.932 10.734-34.649 14.282-33.306 17.396-32.128 17.363-29.332 16.196-26.597 15.355-24.623 14.414-22.691 13.503-20.747 10.279-13.865 7.093-6.965 3.767-.132 3.338 .749 2.168 1.269 1.342 1.957 .837 1.22 .331 .484 0 0M-3.37 .666C-2.176 2.055-1.082 4.476 .389 4.732 2.03 5.017 4.985 3.825 5.69 2.429 10.545-7.195 15.14-16.962 19.429-26.852 21.134-30.782 18.981-34.839 15.327-36.316 11.643-37.805 6.115-35.997 4.918-31.893 1.86-21.41-.52-10.728-3.37 .666"/>
<path transform="matrix(1,0,0,-1,1054.1094,423.84138)" d="M0 0C-.661 .678-1.322 1.355-1.983 2.033-2.088 2.515-2.045 3.116-2.321 3.461-8.84 11.613-15.376 19.753-21.997 27.822-22.324 28.22-23.756 28.279-24.127 27.924-24.557 27.514-24.713 26.302-24.419 25.727-19.969 17.018-15.582 8.267-10.737-.22-10.008-1.498-7.03-1.97-5.103-1.946-3.394-1.925-1.7-.696 0 0M-6.602-6.471C-9.408-4.506-12.476-3.446-13.672-1.329-18.405 7.045-22.737 15.665-26.753 24.407-27.515 26.065-26.163 28.693-25.787 30.873-23.547 30.33-20.465 30.534-19.208 29.118-12.813 21.917-6.64 14.479-.976 6.697 .445 4.743 .554 .909-.311-1.493-1.02-3.462-4.072-4.587-6.602-6.471"/>
<path transform="matrix(1,0,0,-1,968.3395,286.77644)" d="M0 0C-1.942-1.291-4.012-1.924-4.358-3.075-4.858-4.736-4.719-7.182-3.785-8.58 .991-15.728 6.071-22.676 11.158-29.612 11.845-30.549 13.169-31.021 14.198-31.708 14.284-30.387 14.829-28.882 14.384-27.774 11.307-20.11 8.161-12.466 4.707-4.968 3.852-3.114 1.778-1.821 0 0M19.038-30.151C17.811-31.794 17.036-33.896 15.745-34.285 14.169-34.759 11.301-34.441 10.475-33.347 4.287-25.154-1.773-16.839-7.347-8.223-9.397-5.054-8.367-1.252-4.932 .931-1.247 3.272 3.373 2.995 5.28-.569 10.327-10.003 14.386-19.964 19.038-30.151"/>
<path transform="matrix(1,0,0,-1,1041.193,388.6322)" d="M0 0C-.583-.346-1.548-.681-1.53-.952-1.47-1.879-1.309-2.984-.753-3.666 4.496-10.097 9.803-16.481 15.164-22.819 17.309-25.355 19.989-26.054 22.461-23.493 25.195-20.661 24.024-18.124 21.195-15.975 14.982-11.255 8.81-6.479 2.609-1.742 1.834-1.149 .985-.653 0 0M27.762-20.967C25.947-23.114 24.576-26.156 22.401-26.924 20.032-27.761 15.817-27.534 14.316-25.956 7.81-19.117 1.859-11.724-3.917-4.243-4.84-3.047-4.576 .322-3.53 1.426-2.487 2.527 .887 2.967 2.106 2.102 9.815-3.369 17.29-9.184 24.639-15.137 26.022-16.257 26.491-18.504 27.762-20.967"/>
<path transform="matrix(1,0,0,-1,995.4872,311.5746)" d="M0 0C-1.167 8.223-2.049 15.819-3.398 23.332-4.042 26.917-6.784 28.861-10.444 27.721-14.161 26.564-13.592 23.459-12.485 20.69-9.711 13.755-6.853 6.852-3.865 .008-3.437-.972-2.1-1.555-1.184-2.321-.715-1.401-.245-.481 0 0M3.285-1.738C2.439-2.652 1.3-4.954-.218-5.238-1.877-5.548-4.962-4.488-5.567-3.171-9.363 5.083-12.894 13.484-15.977 22.029-17.391 25.951-14.517 30.038-10.813 30.824-6.183 31.805-1.409 29.224-.54 24.482 .98 16.192 1.929 7.797 3.285-1.738"/>
<path transform="matrix(1,0,0,-1,1048.977,379.92213)" d="M0 0C-.372-.312-1.286-.869-1.216-1.054-.795-2.166-.405-3.529 .464-4.195 5.718-8.213 11.003-12.206 16.496-15.883 18.062-16.931 20.517-17.562 22.253-17.131 23.425-16.84 25.065-14.014 24.699-12.926 24.064-11.036 22.344-8.947 20.538-8.118 14.693-5.434 8.602-3.282 2.603-.932 1.836-.631 1.052-.375 0 0M29.266-12.837C27.097-15.712 25.896-18.635 23.756-19.743 21.824-20.742 18.286-20.654 16.46-19.482 9.921-15.286 3.661-10.605-2.353-5.679-3.695-4.58-4.689-.979-3.918 .114-2.884 1.579 .371 2.801 2.064 2.252 9.291-.092 16.433-2.832 23.3-6.074 25.605-7.162 27.001-10.172 29.266-12.837"/>
</g>
</g>
</g>
</g>
</g>
</svg>
