<?xml version="1.0" encoding="UTF-8"?>
<svg xmlns="http://www.w3.org/2000/svg" xmlns:ai="http://ns.adobe.com/AdobeIllustrator/10.0/"
     width="8000" height="4500" viewBox="0 0 8000 4500">
  <metadata>
    <rdf:RDF xmlns:rdf="http://www.w3.org/1999/02/22-rdf-syntax-ns#"
             xmlns:dc="http://purl.org/dc/elements/1.1/"
             xmlns:cc="http://creativecommons.org/ns#">
      <cc:Work rdf:about="">
        <dc:format>image/svg+xml</dc:format>
        <dc:type rdf:resource="http://purl.org/dc/dcmitype/StillImage"/>
        <dc:title>Full Vector Trace</dc:title>
      </cc:Work>
    </rdf:RDF>
  </metadata>
  <title>Complete Vector Trace - 145 contours</title>
  <desc>Original: 8000x4500, Contours: 145, Total Area: 18437908px</desc>
  
  <!-- Background -->
  <rect width="100%" height="100%" fill="white"/>
  
  <!-- All paths grouped by size -->
  <g id="all_paths" fill="black" stroke="none">
    <path id="path_0" data-area="5450342.5" data-order="0" fill-opacity="1.000" d="M 5436 2105 L 5283 1886 L 4451 1243 L 4179 1127 L 3929 1139 L 3253 1438 L 2933 1779 L 2690 1915 L 2261 2836 L 2226 3100 L 2471 3332 L 3041 3494 L 3760 3486 L 4337 3363 L 4827 3161 L 5139 2910 L 5422 2447 Z"/>
    <path id="path_1" data-area="5447727.5" data-order="1" fill-opacity="1.000" d="M 5436 2105 L 5422 2447 L 5139 2909 L 4819 3165 L 4337 3363 L 3760 3486 L 3041 3494 L 2472 3332 L 2226 3100 L 2261 2836 L 2690 1916 L 2934 1779 L 3254 1438 L 3929 1139 L 4179 1127 L 4450 1243 L 5274 1879 Z"/>
    <path id="path_2" data-area="768645.0" data-order="2" fill-opacity="0.308" d="M 3796 1413 L 3048 2203 L 3024 2350 L 3052 2472 L 3115 2570 L 3234 2655 L 3421 2692 L 3563 2639 L 4289 1887 L 4095 1887 L 3926 1797 L 3812 1630 Z"/>
    <path id="path_3" data-area="766844.0" data-order="3" fill-opacity="0.308" d="M 3795 1413 L 3812 1630 L 3925 1797 L 4095 1887 L 4289 1886 L 3562 2639 L 3421 2692 L 3246 2660 L 3134 2588 L 3052 2472 L 3024 2350 L 3047 2206 Z"/>
    <path id="path_4" data-area="423240.0" data-order="4" fill-opacity="0.215" d="M 3689 1275 L 3346 1436 L 2969 1767 L 3017 1769 L 2614 2328 L 2560 2657 L 2660 2924 L 2975 2632 L 2892 2375 L 2955 2149 L 3185 1867 L 3695 1334 Z"/>
    <path id="path_5" data-area="421174.0" data-order="5" fill-opacity="0.214" d="M 3688 1275 L 3698 1326 L 3185 1866 L 2955 2148 L 2892 2375 L 2975 2632 L 2664 2926 L 2560 2657 L 2614 2329 L 3017 1768 L 2969 1768 L 3347 1436 Z"/>
    <path id="path_6" data-area="310691.0" data-order="6" fill-opacity="0.184" d="M 4520 1512 L 4519 1704 L 4816 2106 L 4987 2262 L 5374 2499 L 5437 2325 L 5428 2148 L 5071 1938 Z"/>
    <path id="path_7" data-area="309342.0" data-order="7" fill-opacity="0.184" d="M 4521 1512 L 5070 1938 L 5428 2149 L 5437 2325 L 5373 2499 L 4988 2262 L 4816 2105 L 4518 1701 Z"/>
    <path id="path_8" data-area="308132.5" data-order="8" fill-opacity="0.184" d="M 4507 1718 L 4447 1814 L 4455 1856 L 4485 1852 L 4521 1914 L 4486 2004 L 4559 2203 L 4859 2553 L 5134 2774 L 5285 2628 L 5358 2513 L 4872 2180 Z"/>
    <path id="path_9" data-area="306541.5" data-order="9" fill-opacity="0.183" d="M 4508 1718 L 4871 2180 L 5360 2517 L 5278 2635 L 5133 2774 L 4860 2553 L 4559 2202 L 4486 2004 L 4521 1914 L 4486 1852 L 4455 1855 L 4447 1814 Z"/>
    <path id="path_10" data-area="280991.5" data-order="10" fill-opacity="0.176" d="M 5421 2115 L 5281 1907 L 4482 1284 L 4266 1169 L 4032 1133 L 3696 1254 L 3683 1376 L 2982 2130 L 2909 2443 L 3033 2647 L 3069 2605 L 2967 2325 L 3026 2127 L 3840 1286 L 4080 1155 L 4360 1234 L 4681 1631 Z"/>
    <path id="path_11" data-area="277420.5" data-order="11" fill-opacity="0.175" d="M 5421 2115 L 4682 1631 L 4361 1234 L 4080 1155 L 3838 1287 L 3026 2126 L 2967 2325 L 3069 2605 L 3027 2650 L 2909 2443 L 2980 2134 L 3683 1377 L 3695 1256 L 4032 1133 L 4266 1169 L 4481 1284 L 5280 1907 Z"/>
    <path id="path_12" data-area="217940.5" data-order="12" fill-opacity="0.159" d="M 4466 2013 L 4364 2126 L 4383 2279 L 4433 2413 L 4650 2697 L 4828 2858 L 4935 2919 L 5109 2784 L 4870 2579 L 4658 2358 L 4546 2201 Z"/>
    <path id="path_13" data-area="216703.5" data-order="13" fill-opacity="0.159" d="M 4467 2013 L 4540 2191 L 4638 2335 L 4850 2561 L 5109 2785 L 4934 2919 L 4829 2858 L 4650 2696 L 4433 2412 L 4383 2279 L 4364 2126 Z"/>
    <path id="path_14" data-area="180280.0" data-order="14" fill-opacity="0.149" d="M 4234 2028 L 4148 2119 L 4139 2187 L 4172 2202 L 4197 2269 L 4108 2393 L 4099 2684 L 4212 2908 L 4450 3160 L 4652 3063 L 4620 3032 L 4531 3050 L 4487 3022 L 4475 2954 L 4499 2901 L 4260 2566 L 4238 2473 L 4239 2230 L 4184 2206 L 4236 2080 Z"/>
    <path id="path_15" data-area="179395.0" data-order="15" fill-opacity="0.149" d="M 4235 2028 L 4236 2080 L 4184 2206 L 4239 2230 L 4238 2473 L 4260 2566 L 4344 2711 L 4499 2902 L 4475 2954 L 4487 3023 L 4531 3050 L 4620 3032 L 4652 3064 L 4450 3160 L 4212 2907 L 4099 2684 L 4108 2393 L 4197 2269 L 4172 2201 L 4139 2186 L 4148 2119 Z"/>
    <path id="path_16" data-area="165974.0" data-order="16" fill-opacity="0.145" d="M 4348 2132 L 4252 2229 L 4269 2554 L 4356 2706 L 4511 2897 L 4695 2814 L 4756 2836 L 4767 2935 L 4634 3021 L 4686 3058 L 4905 2933 L 4696 2760 L 4486 2517 L 4385 2339 Z"/>
    <path id="path_17" data-area="164847.0" data-order="17" fill-opacity="0.145" d="M 4349 2132 L 4385 2339 L 4486 2518 L 4695 2760 L 4905 2934 L 4683 3059 L 4634 3021 L 4767 2936 L 4756 2835 L 4687 2816 L 4512 2897 L 4356 2705 L 4269 2554 L 4252 2229 Z"/>
    <path id="path_18" data-area="154571.0" data-order="18" fill-opacity="0.142" d="M 4088 2401 L 3999 2498 L 3951 2786 L 3983 2967 L 4031 3075 L 4139 3244 L 4171 3259 L 4427 3164 L 4218 2935 L 4116 2773 L 4080 2631 Z"/>
    <path id="path_19" data-area="154022.0" data-order="19" fill-opacity="0.142" d="M 4088 2401 L 4080 2631 L 4118 2778 L 4218 2936 L 4427 3165 L 4171 3259 L 4139 3243 L 4031 3074 L 3983 2967 L 3951 2786 L 3999 2498 Z"/>
    <path id="path_20" data-area="130108.5" data-order="20" fill-opacity="0.135" d="M 3978 2520 L 3891 2586 L 3812 2911 L 3797 3144 L 3834 3327 L 4139 3266 L 4023 3086 L 3949 2897 L 3942 2795 Z"/>
    <path id="path_21" data-area="129887.5" data-order="21" fill-opacity="0.135" d="M 3977 2520 L 3942 2795 L 3949 2897 L 4023 3087 L 4139 3265 L 4002 3304 L 3834 3327 L 3797 3144 L 3812 2911 L 3890 2589 Z"/>
    <path id="path_22" data-area="111764.0" data-order="22" fill-opacity="0.130" d="M 3947 2329 L 3867 2421 L 3648 3033 L 3519 3244 L 3613 3301 L 3809 3324 L 3784 3142 L 3790 2973 L 3873 2604 L 3858 2542 Z"/>
    <path id="path_23" data-area="111473.0" data-order="23" fill-opacity="0.130" d="M 3947 2329 L 3858 2542 L 3873 2604 L 3790 2973 L 3784 3142 L 3809 3323 L 3613 3301 L 3518 3247 L 3646 3038 L 3865 2426 Z"/>
    <path id="path_24" data-area="106395.5" data-order="24" fill-opacity="0.129" d="M 4518 1609 L 4430 1790 L 3588 2635 L 3425 2704 L 3233 2668 L 3039 2474 L 3034 2203 L 3838 1303 L 3033 2139 L 2980 2341 L 3040 2545 L 3287 2720 L 3574 2684 L 4451 1780 Z"/>
    <path id="path_25" data-area="102596.0" data-order="25" fill-opacity="0.128" d="M 4518 1611 L 4451 1779 L 3573 2684 L 3287 2720 L 3040 2544 L 2980 2341 L 3033 2140 L 3839 1303 L 3035 2200 L 3043 2484 L 3226 2665 L 3425 2704 L 3584 2639 L 4430 1791 Z"/>
    <path id="path_26" data-area="67723.5" data-order="26" fill-opacity="0.118" d="M 4153 1338 L 4098 1368 L 4068 1409 L 4055 1459 L 4064 1525 L 4089 1570 L 4135 1609 L 4196 1629 L 4256 1624 L 4298 1600 L 4335 1550 L 4346 1509 L 4338 1442 L 4309 1391 L 4262 1352 L 4206 1334 Z"/>
    <path id="path_27" data-area="67496.5" data-order="27" fill-opacity="0.118" d="M 3844 2438 L 3760 2532 L 3692 2727 L 3616 2872 L 3540 2975 L 3429 3087 L 3445 3169 L 3496 3235 L 3554 3180 L 3624 3054 Z"/>
    <path id="path_28" data-area="67475.5" data-order="28" fill-opacity="0.118" d="M 4136 1344 L 4206 1334 L 4247 1345 L 4297 1379 L 4332 1428 L 4346 1477 L 4338 1542 L 4313 1584 L 4261 1622 L 4206 1630 L 4152 1617 L 4095 1576 L 4066 1530 L 4055 1483 L 4064 1419 L 4091 1376 Z"/>
    <path id="path_29" data-area="66988.0" data-order="29" fill-opacity="0.118" d="M 3844 2438 L 3629 3042 L 3554 3179 L 3497 3235 L 3444 3166 L 3429 3087 L 3540 2976 L 3616 2873 L 3690 2732 L 3760 2533 Z"/>
    <path id="path_30" data-area="34785.5" data-order="30" fill-opacity="0.109" d="M 4172 1371 L 4139 1391 L 4117 1424 L 4110 1473 L 4120 1512 L 4150 1552 L 4179 1570 L 4208 1578 L 4236 1578 L 4262 1571 L 4295 1547 L 4311 1520 L 4318 1475 L 4308 1434 L 4285 1400 L 4249 1375 L 4215 1366 Z"/>
    <path id="path_31" data-area="34613.5" data-order="31" fill-opacity="0.109" d="M 4172 1371 L 4215 1366 L 4244 1373 L 4282 1398 L 4310 1439 L 4318 1475 L 4311 1520 L 4295 1546 L 4262 1571 L 4236 1578 L 4208 1578 L 4182 1571 L 4151 1552 L 4119 1509 L 4110 1473 L 4117 1424 L 4140 1391 Z"/>
    <path id="path_32" data-area="33961.5" data-order="32" fill-opacity="0.109" d="M 4479 1877 L 4455 1877 L 4236 2104 L 4201 2169 L 4206 2190 L 4219 2203 L 4241 2208 L 4258 2198 L 4498 1961 L 4516 1921 Z"/>
    <path id="path_33" data-area="33777.0" data-order="33" fill-opacity="0.109" d="M 2979 1817 L 2910 1820 L 2844 1841 L 2778 1883 L 2725 1941 L 2690 2008 L 2672 2084 L 2694 2219 L 2735 2167 L 2763 2042 L 2799 1966 L 2858 1907 L 2952 1855 Z"/>
    <path id="path_34" data-area="33461.5" data-order="34" fill-opacity="0.109" d="M 2978 1817 L 2951 1855 L 2857 1907 L 2799 1965 L 2763 2042 L 2737 2162 L 2695 2219 L 2672 2084 L 2690 2008 L 2725 1942 L 2779 1883 L 2845 1841 L 2910 1820 Z"/>
    <path id="path_35" data-area="33387.5" data-order="35" fill-opacity="0.109" d="M 4478 1877 L 4516 1922 L 4498 1960 L 4257 2198 L 4241 2208 L 4220 2203 L 4202 2182 L 4201 2169 L 4236 2105 L 4456 1877 Z"/>
    <path id="path_36" data-area="32708.0" data-order="36" fill-opacity="0.109" d="M 4172 2236 L 4138 2217 L 4127 2218 L 3917 2451 L 3876 2519 L 3879 2537 L 3893 2555 L 3914 2562 L 3933 2548 L 4162 2305 L 4187 2263 Z"/>
    <path id="path_37" data-area="32404.0" data-order="37" fill-opacity="0.109" d="M 3741 2547 L 3682 2607 L 3654 2690 L 3593 2785 L 3441 2917 L 3430 3062 L 3528 2971 L 3612 2857 L 3683 2716 Z"/>
    <path id="path_38" data-area="32141.0" data-order="38" fill-opacity="0.109" d="M 4171 2236 L 4187 2263 L 4162 2304 L 3914 2562 L 3894 2555 L 3881 2540 L 3876 2519 L 3917 2452 L 4128 2218 Z"/>
    <path id="path_39" data-area="31919.0" data-order="39" fill-opacity="0.109" d="M 3740 2547 L 3684 2713 L 3618 2846 L 3535 2962 L 3431 3062 L 3427 3024 L 3441 2918 L 3593 2786 L 3641 2717 L 3682 2608 Z"/>
    <path id="path_40" data-area="31821.5" data-order="40" fill-opacity="0.109" d="M 2992 2642 L 2461 3151 L 2485 3184 L 3006 2673 Z"/>
    <path id="path_41" data-area="30766.0" data-order="41" fill-opacity="0.108" d="M 2991 2642 L 3006 2672 L 2486 3183 L 2465 3141 Z"/>
    <path id="path_42" data-area="29481.0" data-order="42" fill-opacity="0.108" d="M 2881 3401 L 2887 3412 L 2917 3373 L 2972 3361 L 2959 3409 L 2973 3430 L 2992 3438 L 3237 3462 L 3266 3443 L 3268 3393 L 3309 3414 L 3329 3459 L 3336 3448 L 3316 3405 L 3285 3385 L 3019 3350 L 2939 3355 L 2902 3366 Z"/>
    <path id="path_43" data-area="29325.0" data-order="43" fill-opacity="0.108" d="M 2881 3401 L 2903 3366 L 2939 3355 L 3019 3350 L 3282 3384 L 3316 3406 L 3336 3448 L 3330 3459 L 3309 3413 L 3268 3393 L 3267 3440 L 3237 3462 L 2992 3438 L 2959 3409 L 2973 3361 L 2922 3370 L 2886 3412 Z"/>
    <path id="path_44" data-area="22593.0" data-order="44" fill-opacity="0.106" d="M 4757 2858 L 4746 2842 L 4729 2831 L 4690 2828 L 4505 2922 L 4489 2939 L 4489 2956 L 4498 2971 L 4520 2988 L 4542 2993 L 4559 2990 L 4748 2893 L 4759 2879 Z"/>
    <path id="path_45" data-area="22337.0" data-order="45" fill-opacity="0.106" d="M 4757 2858 L 4759 2879 L 4750 2891 L 4559 2990 L 4523 2989 L 4508 2980 L 4489 2956 L 4488 2942 L 4506 2922 L 4690 2828 L 4726 2830 L 4745 2842 Z"/>
    <path id="path_46" data-area="18629.0" data-order="46" fill-opacity="0.105" d="M 3659 2633 L 3579 2695 L 3476 2745 L 3446 2892 L 3515 2845 L 3589 2771 L 3636 2702 L 3660 2648 Z"/>
    <path id="path_47" data-area="18354.0" data-order="47" fill-opacity="0.105" d="M 3658 2633 L 3660 2648 L 3636 2701 L 3589 2770 L 3528 2833 L 3448 2893 L 3445 2885 L 3476 2746 L 3580 2695 Z"/>
    <path id="path_48" data-area="15536.5" data-order="48" fill-opacity="0.104" d="M 2833 1833 L 2782 1858 L 2729 1899 L 2687 1946 L 2645 2016 L 2624 2074 L 2612 2148 L 2616 2230 L 2636 2283 L 2672 2253 L 2681 2235 L 2664 2144 L 2662 2081 L 2683 1989 L 2738 1904 Z"/>
    <path id="path_49" data-area="15222.0" data-order="49" fill-opacity="0.104" d="M 2832 1834 L 2744 1897 L 2689 1975 L 2662 2081 L 2664 2144 L 2681 2235 L 2637 2283 L 2616 2230 L 2612 2148 L 2640 2028 L 2712 1917 L 2771 1866 Z"/>
    <path id="path_50" data-area="9679.0" data-order="50" fill-opacity="0.103" d="M 4196 1651 L 4184 1666 L 4181 1677 L 4185 1812 L 4197 1832 L 4211 1839 L 4226 1840 L 4239 1835 L 4247 1827 L 4252 1808 L 4221 1668 L 4216 1661 Z"/>
    <path id="path_51" data-area="9622.0" data-order="51" fill-opacity="0.103" d="M 4197 1651 L 4221 1668 L 4252 1808 L 4247 1826 L 4238 1835 L 4226 1840 L 4211 1839 L 4198 1832 L 4185 1812 L 4181 1677 L 4184 1667 Z"/>
    <path id="path_52" data-area="9109.0" data-order="52" fill-opacity="0.102" d="M 4244 1651 L 4231 1666 L 4266 1807 L 4273 1816 L 4288 1823 L 4311 1821 L 4326 1805 L 4327 1785 L 4268 1659 L 4258 1652 Z"/>
    <path id="path_53" data-area="9013.0" data-order="53" fill-opacity="0.102" d="M 4247 1650 L 4258 1652 L 4268 1660 L 4327 1785 L 4326 1805 L 4308 1822 L 4294 1824 L 4282 1821 L 4265 1804 L 4231 1671 L 4238 1657 Z"/>
    <path id="path_54" data-area="8432.0" data-order="54" fill-opacity="0.102" d="M 4015 1189 L 4001 1204 L 3999 1217 L 4002 1227 L 4077 1333 L 4087 1338 L 4103 1336 L 4113 1318 L 4057 1197 L 4049 1188 L 4038 1184 Z"/>
    <path id="path_55" data-area="8406.0" data-order="55" fill-opacity="0.102" d="M 4284 1638 L 4279 1656 L 4280 1665 L 4325 1755 L 4340 1778 L 4363 1792 L 4383 1781 L 4391 1771 L 4393 1755 L 4389 1739 L 4310 1642 Z"/>
    <path id="path_56" data-area="8363.5" data-order="56" fill-opacity="0.102" d="M 4758 2906 L 4742 2910 L 4566 3001 L 4528 3004 L 4491 2984 L 4491 3006 L 4519 3032 L 4541 3038 L 4564 3034 L 4746 2940 L 4757 2928 Z"/>
    <path id="path_57" data-area="8260.0" data-order="57" fill-opacity="0.102" d="M 4016 1189 L 4038 1184 L 4048 1188 L 4057 1198 L 4113 1319 L 4102 1336 L 4087 1338 L 4077 1332 L 4002 1226 L 4000 1207 Z"/>
    <path id="path_58" data-area="8135.5" data-order="58" fill-opacity="0.102" d="M 4758 2907 L 4757 2928 L 4745 2940 L 4561 3035 L 4541 3038 L 4522 3033 L 4507 3024 L 4490 3003 L 4491 2984 L 4528 3004 L 4566 3001 L 4745 2909 Z"/>
    <path id="path_59" data-area="7903.0" data-order="59" fill-opacity="0.102" d="M 4325 1611 L 4320 1618 L 4320 1635 L 4399 1729 L 4412 1733 L 4436 1729 L 4453 1707 L 4444 1685 L 4346 1609 L 4334 1608 Z"/>
    <path id="path_60" data-area="7857.0" data-order="60" fill-opacity="0.102" d="M 2970 3397 L 2976 3416 L 2998 3427 L 3218 3449 L 3224 3454 L 3253 3438 L 3246 3398 L 3235 3393 L 3230 3395 L 3228 3416 L 3220 3425 L 3011 3406 L 3000 3397 L 3002 3373 L 2998 3370 L 2983 3376 Z"/>
    <path id="path_61" data-area="7825.0" data-order="61" fill-opacity="0.102" d="M 4099 1170 L 4084 1181 L 4079 1194 L 4080 1205 L 4123 1310 L 4133 1318 L 4146 1320 L 4155 1314 L 4161 1302 L 4145 1194 L 4139 1181 L 4128 1172 L 4119 1169 Z"/>
    <path id="path_62" data-area="7801.0" data-order="62" fill-opacity="0.102" d="M 2970 3397 L 2984 3376 L 2998 3370 L 3002 3374 L 3000 3398 L 3011 3406 L 3220 3425 L 3227 3419 L 3230 3395 L 3235 3393 L 3247 3401 L 3253 3438 L 3225 3454 L 3218 3449 L 2998 3427 L 2976 3415 Z"/>
    <path id="path_63" data-area="7771.0" data-order="63" fill-opacity="0.102" d="M 4099 1170 L 4119 1169 L 4127 1172 L 4139 1182 L 4145 1194 L 4161 1302 L 4155 1313 L 4146 1320 L 4133 1318 L 4123 1309 L 4080 1205 L 4081 1187 Z"/>
    <path id="path_64" data-area="7716.0" data-order="64" fill-opacity="0.102" d="M 4326 1611 L 4334 1608 L 4345 1609 L 4444 1686 L 4453 1706 L 4435 1729 L 4424 1733 L 4407 1732 L 4390 1719 L 4320 1634 L 4320 1618 Z"/>
    <path id="path_65" data-area="7182.5" data-order="65" fill-opacity="0.102" d="M 4354 1581 L 4354 1596 L 4364 1610 L 4440 1665 L 4453 1668 L 4470 1665 L 4492 1637 L 4472 1610 L 4437 1594 L 4379 1573 L 4369 1573 Z"/>
    <path id="path_66" data-area="7060.5" data-order="66" fill-opacity="0.102" d="M 4353 1584 L 4369 1573 L 4379 1573 L 4406 1582 L 4468 1608 L 4492 1636 L 4477 1658 L 4469 1665 L 4458 1668 L 4443 1666 L 4365 1610 L 4354 1596 Z"/>
    <path id="path_67" data-area="6696.0" data-order="67" fill-opacity="0.102" d="M 3318 1442 L 3304 1439 L 3255 1458 L 3162 1539 L 3143 1572 L 3153 1576 L 3162 1574 L 3228 1529 L 3285 1483 L 3312 1456 Z"/>
    <path id="path_68" data-area="6458.5" data-order="68" fill-opacity="0.102" d="M 3318 1443 L 3312 1455 L 3284 1483 L 3223 1532 L 3157 1576 L 3144 1571 L 3162 1540 L 3256 1458 L 3272 1449 L 3308 1438 Z"/>
    <path id="path_69" data-area="5640.0" data-order="69" fill-opacity="0.102" d="M 4340 1920 L 4331 1924 L 4255 2005 L 4250 2021 L 4254 2063 L 4264 2058 L 4335 1982 L 4344 1955 Z"/>
    <path id="path_70" data-area="5478.0" data-order="70" fill-opacity="0.101" d="M 4339 1920 L 4344 1955 L 4338 1976 L 4327 1992 L 4301 2016 L 4263 2058 L 4255 2063 L 4251 2047 L 4250 2025 L 4255 2006 L 4313 1943 Z"/>
    <path id="path_71" data-area="5379.0" data-order="71" fill-opacity="0.101" d="M 4434 1821 L 4429 1821 L 4399 1854 L 4369 1881 L 4361 1892 L 4353 1915 L 4353 1935 L 4357 1954 L 4360 1955 L 4366 1951 L 4439 1875 L 4443 1862 L 4438 1830 Z"/>
    <path id="path_72" data-area="5247.0" data-order="72" fill-opacity="0.101" d="M 4031 1547 L 4015 1544 L 3879 1585 L 3867 1595 L 3868 1611 L 3874 1621 L 3882 1626 L 3898 1625 L 4024 1559 L 4031 1552 Z"/>
    <path id="path_73" data-area="5226.0" data-order="73" fill-opacity="0.101" d="M 4433 1821 L 4438 1830 L 4443 1862 L 4439 1874 L 4359 1955 L 4353 1935 L 4353 1915 L 4361 1893 L 4369 1882 L 4391 1863 L 4430 1821 Z"/>
    <path id="path_74" data-area="5216.5" data-order="74" fill-opacity="0.101" d="M 4078 1612 L 4067 1613 L 3972 1721 L 3970 1738 L 3977 1750 L 3989 1758 L 4005 1751 L 4080 1624 Z"/>
    <path id="path_75" data-area="5172.5" data-order="75" fill-opacity="0.101" d="M 4115 1637 L 4102 1644 L 4042 1764 L 4041 1784 L 4052 1796 L 4071 1797 L 4082 1783 L 4120 1646 Z"/>
    <path id="path_76" data-area="5154.0" data-order="76" fill-opacity="0.101" d="M 4031 1547 L 4031 1551 L 4023 1559 L 3898 1625 L 3882 1626 L 3874 1620 L 3867 1608 L 3867 1596 L 3882 1584 L 4015 1544 Z"/>
    <path id="path_77" data-area="5125.0" data-order="77" fill-opacity="0.101" d="M 4036 2238 L 4030 2240 L 3973 2302 L 3960 2335 L 3945 2397 L 3959 2387 L 4016 2322 L 4029 2288 L 4038 2247 Z"/>
    <path id="path_78" data-area="5102.5" data-order="78" fill-opacity="0.101" d="M 4048 1583 L 4034 1582 L 3914 1662 L 3911 1674 L 3915 1688 L 3928 1698 L 3942 1695 L 4047 1594 Z"/>
    <path id="path_79" data-area="5084.5" data-order="79" fill-opacity="0.101" d="M 4133 2137 L 4126 2139 L 4079 2187 L 4060 2212 L 4046 2245 L 4043 2264 L 4045 2285 L 4051 2282 L 4076 2253 L 4114 2216 L 4126 2184 Z"/>
    <path id="path_80" data-area="5083.5" data-order="80" fill-opacity="0.101" d="M 4114 1637 L 4120 1646 L 4082 1783 L 4072 1796 L 4055 1797 L 4041 1784 L 4042 1764 L 4102 1645 Z"/>
    <path id="path_81" data-area="5049.5" data-order="81" fill-opacity="0.101" d="M 4156 1651 L 4147 1659 L 4118 1793 L 4118 1807 L 4121 1814 L 4131 1821 L 4141 1823 L 4153 1820 L 4159 1808 L 4159 1736 L 4163 1732 L 4163 1666 Z"/>
    <path id="path_82" data-area="5048.5" data-order="82" fill-opacity="0.101" d="M 4017 1505 L 3993 1497 L 3991 1500 L 3861 1507 L 3852 1509 L 3845 1515 L 3843 1531 L 3850 1544 L 3859 1548 L 3875 1548 L 3995 1519 Z"/>
    <path id="path_83" data-area="5023.5" data-order="83" fill-opacity="0.101" d="M 4076 1611 L 4080 1623 L 4005 1750 L 3990 1758 L 3973 1745 L 3970 1738 L 3972 1722 L 4068 1613 Z"/>
    <path id="path_84" data-area="5021.0" data-order="84" fill-opacity="0.101" d="M 4016 1506 L 3995 1519 L 3875 1548 L 3854 1546 L 3847 1540 L 3843 1531 L 3845 1516 L 3851 1510 L 3861 1507 L 3992 1500 L 3994 1497 Z"/>
    <path id="path_85" data-area="5020.5" data-order="85" fill-opacity="0.101" d="M 4155 1651 L 4163 1666 L 4163 1732 L 4159 1735 L 4159 1808 L 4152 1820 L 4141 1823 L 4131 1821 L 4121 1813 L 4118 1807 L 4118 1793 L 4144 1667 Z"/>
    <path id="path_86" data-area="4986.0" data-order="86" fill-opacity="0.101" d="M 4035 2238 L 4038 2247 L 4029 2288 L 4016 2321 L 3959 2386 L 3946 2397 L 3960 2335 L 3973 2303 L 4010 2261 Z"/>
    <path id="path_87" data-area="4942.0" data-order="87" fill-opacity="0.101" d="M 4132 2137 L 4133 2145 L 4126 2184 L 4114 2215 L 4046 2285 L 4043 2277 L 4044 2255 L 4051 2230 L 4060 2213 L 4094 2172 L 4127 2139 Z"/>
    <path id="path_88" data-area="4905.5" data-order="88" fill-opacity="0.101" d="M 4048 1584 L 4047 1593 L 3941 1695 L 3929 1698 L 3915 1687 L 3911 1674 L 3913 1665 L 3919 1658 L 4035 1582 L 4044 1581 Z"/>
    <path id="path_89" data-area="4863.0" data-order="89" fill-opacity="0.101" d="M 3839 1442 L 3842 1460 L 3849 1466 L 3862 1470 L 3994 1474 L 4012 1469 L 3994 1457 L 3863 1429 L 3847 1430 Z"/>
    <path id="path_90" data-area="4839.0" data-order="90" fill-opacity="0.101" d="M 3839 1442 L 3848 1430 L 3863 1429 L 3994 1457 L 4012 1468 L 3994 1474 L 3862 1470 L 3850 1466 L 3839 1454 Z"/>
    <path id="path_91" data-area="4642.0" data-order="91" fill-opacity="0.101" d="M 4199 1664 L 4194 1675 L 4193 1695 L 4194 1738 L 4197 1739 L 4198 1810 L 4204 1822 L 4223 1827 L 4236 1821 L 4239 1806 L 4210 1674 L 4202 1664 Z"/>
    <path id="path_92" data-area="4631.5" data-order="92" fill-opacity="0.101" d="M 3856 1367 L 3855 1378 L 3858 1385 L 3870 1393 L 4000 1431 L 4016 1430 L 4015 1424 L 4008 1416 L 3885 1357 L 3866 1358 Z"/>
    <path id="path_93" data-area="4616.0" data-order="93" fill-opacity="0.101" d="M 4200 1664 L 4211 1678 L 4239 1806 L 4236 1820 L 4223 1827 L 4212 1826 L 4205 1822 L 4198 1810 L 4197 1738 L 4194 1737 L 4193 1695 L 4194 1675 Z"/>
    <path id="path_94" data-area="4550.5" data-order="94" fill-opacity="0.101" d="M 3855 1370 L 3866 1358 L 3882 1356 L 4007 1416 L 4016 1429 L 4004 1432 L 3870 1393 L 3858 1384 Z"/>
    <path id="path_95" data-area="4527.0" data-order="95" fill-opacity="0.101" d="M 3897 1292 L 3891 1307 L 3901 1323 L 4022 1393 L 4035 1393 L 4034 1384 L 3927 1294 L 3913 1289 Z"/>
    <path id="path_96" data-area="4349.0" data-order="96" fill-opacity="0.101" d="M 3897 1293 L 3904 1289 L 3913 1289 L 3926 1294 L 4029 1379 L 4036 1391 L 4033 1394 L 4023 1393 L 3902 1323 L 3891 1306 Z"/>
    <path id="path_97" data-area="4339.0" data-order="97" fill-opacity="0.101" d="M 4249 1663 L 4245 1674 L 4275 1798 L 4285 1809 L 4291 1811 L 4305 1809 L 4313 1803 L 4315 1798 L 4312 1780 L 4261 1671 Z"/>
    <path id="path_98" data-area="4277.5" data-order="98" fill-opacity="0.101" d="M 4286 1637 L 4309 1642 L 4389 1740 L 4391 1764 L 4302 1651 L 4290 1650 L 4290 1660 L 4346 1766 L 4367 1774 L 4392 1768 L 4366 1791 L 4336 1773 L 4279 1661 Z"/>
    <path id="path_99" data-area="4261.0" data-order="99" fill-opacity="0.101" d="M 4250 1663 L 4261 1672 L 4312 1780 L 4315 1798 L 4308 1807 L 4302 1810 L 4288 1810 L 4275 1797 L 4245 1674 Z"/>
    <path id="path_100" data-area="4247.5" data-order="100" fill-opacity="0.101" d="M 3951 1239 L 3948 1243 L 3948 1254 L 3953 1268 L 4040 1351 L 4056 1358 L 4054 1342 L 3983 1243 L 3966 1231 Z"/>
    <path id="path_101" data-area="4060.5" data-order="101" fill-opacity="0.101" d="M 3952 1239 L 3965 1231 L 3983 1244 L 4054 1343 L 4055 1358 L 4041 1351 L 3953 1267 L 3948 1254 L 3948 1244 Z"/>
    <path id="path_102" data-area="3887.0" data-order="102" fill-opacity="0.101" d="M 4032 1195 L 4016 1206 L 4016 1226 L 4081 1319 L 4093 1326 L 4095 1318 L 4093 1306 L 4054 1214 L 4039 1198 Z"/>
    <path id="path_103" data-area="3790.5" data-order="103" fill-opacity="0.101" d="M 4293 1648 L 4302 1652 L 4381 1750 L 4383 1757 L 4390 1764 L 4379 1772 L 4367 1774 L 4355 1772 L 4346 1765 L 4290 1659 L 4289 1653 Z"/>
    <path id="path_104" data-area="3773.0" data-order="104" fill-opacity="0.101" d="M 4033 1195 L 4052 1212 L 4095 1312 L 4092 1326 L 4081 1318 L 4016 1226 L 4016 1207 Z"/>
    <path id="path_105" data-area="3736.5" data-order="105" fill-opacity="0.101" d="M 4332 1622 L 4334 1634 L 4404 1718 L 4413 1723 L 4422 1723 L 4432 1717 L 4437 1709 L 4438 1701 L 4436 1695 L 4428 1686 L 4339 1619 Z"/>
    <path id="path_106" data-area="3635.0" data-order="106" fill-opacity="0.101" d="M 4107 1181 L 4094 1188 L 4092 1193 L 4093 1206 L 4129 1294 L 4134 1302 L 4143 1307 L 4147 1299 L 4133 1198 L 4124 1184 L 4117 1181 Z"/>
    <path id="path_107" data-area="3602.5" data-order="107" fill-opacity="0.101" d="M 4107 1181 L 4120 1182 L 4129 1190 L 4133 1198 L 4147 1298 L 4142 1306 L 4132 1299 L 4093 1206 L 4092 1193 L 4094 1189 Z"/>
    <path id="path_108" data-area="3572.5" data-order="108" fill-opacity="0.101" d="M 4332 1623 L 4337 1619 L 4343 1622 L 4427 1686 L 4438 1701 L 4437 1709 L 4432 1716 L 4422 1723 L 4413 1723 L 4405 1718 L 4337 1637 L 4332 1629 Z"/>
    <path id="path_109" data-area="3301.5" data-order="109" fill-opacity="0.101" d="M 4185 1186 L 4179 1188 L 4174 1193 L 4172 1211 L 4185 1293 L 4195 1302 L 4200 1295 L 4213 1220 L 4213 1209 L 4208 1194 L 4202 1188 L 4197 1186 Z"/>
    <path id="path_110" data-area="3271.0" data-order="110" fill-opacity="0.101" d="M 4185 1186 L 4197 1186 L 4201 1188 L 4211 1200 L 4213 1209 L 4212 1227 L 4201 1292 L 4194 1301 L 4187 1295 L 4184 1288 L 4172 1211 L 4172 1199 L 4174 1194 Z"/>
    <path id="path_111" data-area="3192.0" data-order="111" fill-opacity="0.101" d="M 4366 1585 L 4367 1593 L 4375 1603 L 4440 1650 L 4451 1654 L 4464 1654 L 4470 1648 L 4473 1635 L 4468 1626 L 4460 1618 L 4373 1583 Z"/>
    <path id="path_112" data-area="3184.5" data-order="112" fill-opacity="0.101" d="M 4378 1537 L 4378 1539 L 4391 1550 L 4466 1580 L 4482 1580 L 4487 1576 L 4490 1570 L 4490 1551 L 4485 1545 L 4476 1541 L 4399 1532 L 4389 1532 Z"/>
    <path id="path_113" data-area="3157.5" data-order="113" fill-opacity="0.101" d="M 4378 1538 L 4389 1532 L 4399 1532 L 4476 1541 L 4484 1545 L 4491 1554 L 4490 1570 L 4487 1575 L 4479 1581 L 4466 1580 L 4396 1552 Z"/>
    <path id="path_114" data-area="3126.0" data-order="114" fill-opacity="0.101" d="M 4487 1491 L 4487 1476 L 4485 1470 L 4479 1464 L 4470 1461 L 4389 1474 L 4378 1480 L 4378 1483 L 4387 1491 L 4464 1502 L 4479 1501 L 4485 1496 Z"/>
    <path id="path_115" data-area="3106.0" data-order="115" fill-opacity="0.101" d="M 4366 1586 L 4373 1583 L 4459 1618 L 4473 1635 L 4473 1641 L 4470 1647 L 4463 1654 L 4451 1654 L 4441 1650 L 4376 1603 L 4369 1596 Z"/>
    <path id="path_116" data-area="3099.0" data-order="116" fill-opacity="0.101" d="M 4487 1491 L 4485 1495 L 4476 1502 L 4464 1502 L 4391 1492 L 4385 1489 L 4378 1481 L 4389 1474 L 4470 1461 L 4478 1464 L 4485 1471 L 4487 1476 Z"/>
    <path id="path_117" data-area="3084.0" data-order="117" fill-opacity="0.101" d="M 4266 1210 L 4258 1212 L 4252 1219 L 4250 1226 L 4246 1273 L 4246 1308 L 4250 1316 L 4257 1315 L 4261 1312 L 4281 1265 L 4291 1235 L 4285 1222 L 4275 1213 Z"/>
    <path id="path_118" data-area="3047.0" data-order="118" fill-opacity="0.101" d="M 4266 1210 L 4277 1215 L 4288 1227 L 4291 1235 L 4281 1265 L 4264 1305 L 4258 1314 L 4251 1316 L 4246 1308 L 4246 1273 L 4250 1226 L 4254 1217 L 4259 1212 Z"/>
    <path id="path_119" data-area="3015.0" data-order="119" fill-opacity="0.101" d="M 4461 1395 L 4456 1387 L 4450 1383 L 4443 1382 L 4436 1384 L 4371 1420 L 4367 1425 L 4366 1432 L 4373 1437 L 4380 1437 L 4457 1422 L 4462 1418 L 4464 1413 L 4464 1405 Z"/>
    <path id="path_120" data-area="3005.5" data-order="120" fill-opacity="0.101" d="M 4349 1257 L 4344 1255 L 4336 1256 L 4329 1259 L 4322 1265 L 4312 1285 L 4295 1328 L 4297 1341 L 4310 1338 L 4355 1293 L 4365 1278 L 4366 1274 Z"/>
    <path id="path_121" data-area="2955.0" data-order="121" fill-opacity="0.101" d="M 4463 1401 L 4464 1413 L 4462 1417 L 4451 1424 L 4380 1437 L 4374 1437 L 4366 1431 L 4368 1424 L 4372 1420 L 4439 1383 L 4446 1382 L 4453 1385 L 4459 1392 Z"/>
    <path id="path_122" data-area="2911.5" data-order="122" fill-opacity="0.101" d="M 4348 1257 L 4365 1274 L 4365 1277 L 4355 1292 L 4313 1335 L 4307 1339 L 4298 1341 L 4296 1339 L 4295 1328 L 4307 1297 L 4322 1266 L 4336 1256 L 4344 1255 Z"/>
    <path id="path_123" data-area="2840.0" data-order="123" fill-opacity="0.101" d="M 4415 1322 L 4404 1315 L 4391 1315 L 4340 1372 L 4339 1379 L 4343 1390 L 4346 1390 L 4416 1348 L 4419 1345 L 4420 1340 Z"/>
    <path id="path_124" data-area="2736.0" data-order="124" fill-opacity="0.101" d="M 4410 1318 L 4417 1326 L 4420 1340 L 4419 1344 L 4395 1361 L 4344 1390 L 4342 1388 L 4339 1375 L 4368 1340 L 4392 1315 L 4400 1314 Z"/>
    <path id="path_125" data-area="2116.0" data-order="125" fill-opacity="0.101" d="M 5333 2590 L 4711 3059 L 3846 3338 L 3447 3197 L 3462 2746 L 3075 2623 L 2490 3193 L 2326 2737 L 2490 3193 L 3078 2622 L 3461 2746 L 3447 3198 L 3846 3338 L 4712 3059 L 5333 2591 L 4853 3126 L 3865 3455 L 2839 3441 L 2378 3262 L 2232 3057 L 2324 2736 L 2238 3085 L 2490 3322 L 3093 3484 L 3865 3455 L 4854 3126 Z"/>
    <path id="path_126" data-area="1969.5" data-order="126" fill-opacity="0.101" d="M 4042 1620 L 4037 1621 L 3970 1685 L 3931 1709 L 3929 1717 L 3949 1738 L 3952 1738 L 3955 1727 L 3965 1710 L 4040 1625 Z"/>
    <path id="path_127" data-area="1773.5" data-order="127" fill-opacity="0.100" d="M 4041 1620 L 4040 1624 L 3965 1709 L 3950 1738 L 3929 1716 L 3931 1710 L 3971 1685 Z"/>
    <path id="path_128" data-area="1547.0" data-order="128" fill-opacity="0.100" d="M 3827 1474 L 3831 1505 L 3846 1498 L 3863 1494 L 3974 1489 L 3972 1488 L 3974 1487 L 3861 1482 L 3840 1475 L 3831 1468 L 3828 1468 Z"/>
    <path id="path_129" data-area="1533.0" data-order="129" fill-opacity="0.100" d="M 3827 1474 L 3830 1468 L 3837 1474 L 3861 1482 L 3972 1488 L 3863 1494 L 3846 1498 L 3832 1505 L 3827 1487 Z"/>
    <path id="path_130" data-area="1489.0" data-order="130" fill-opacity="0.100" d="M 3987 1195 L 3843 1356 L 3977 1384 L 3853 1321 L 4084 1168 L 4179 1171 L 4204 1314 L 4227 1181 L 4245 1327 L 4306 1215 L 4286 1348 L 4379 1269 L 4331 1393 L 4456 1367 L 4362 1445 L 4481 1419 L 4370 1496 L 4505 1514 L 4366 1529 L 4505 1579 L 4377 1799 L 4144 1839 L 4150 1637 L 4068 1816 L 4112 1622 L 4019 1792 L 4070 1362 L 3948 1225 L 4027 1359 L 3882 1319 L 4036 1369 L 3959 1221 L 4049 1313 L 4020 1528 L 4094 1612 L 3994 1776 L 4112 1622 L 4067 1816 L 4150 1637 L 4142 1839 L 4403 1783 L 4505 1589 L 4364 1542 L 4504 1545 L 4364 1484 L 4491 1452 L 4354 1434 L 4441 1341 L 4334 1395 L 4403 1292 L 4291 1352 L 4304 1215 L 4246 1327 L 4235 1183 L 4197 1316 L 4179 1170 Z"/>
    <path id="path_131" data-area="940.0" data-order="131" fill-opacity="0.100" d="M 2614 2272 L 2611 2272 L 2608 2274 L 2589 2310 L 2588 2315 L 2592 2321 L 2594 2321 L 2627 2298 L 2626 2297 L 2626 2294 L 2619 2281 L 2619 2279 Z"/>
    <path id="path_132" data-area="880.0" data-order="132" fill-opacity="0.100" d="M 2613 2272 L 2619 2280 L 2619 2282 L 2626 2295 L 2626 2298 L 2593 2321 L 2588 2315 L 2588 2313 L 2608 2275 L 2611 2272 Z"/>
    <path id="path_133" data-area="579.0" data-order="133" fill-opacity="0.100" d="M 2603 2236 L 2547 2653 L 2652 2941 L 2449 3134 L 2352 2955 L 2343 2717 L 2601 2236 L 2340 2735 L 2355 2966 L 2453 3133 L 2652 2941 L 2547 2653 Z"/>
    <path id="path_134" data-area="404.5" data-order="134" fill-opacity="0.100" d="M 3815 1403 L 3822 1621 L 3967 1815 L 4084 1871 L 4207 1885 L 4388 1811 L 4172 1857 L 3984 1785 L 3846 1612 L 3817 1403 L 3851 1624 L 3990 1790 L 4172 1857 L 4387 1810 L 4207 1885 L 4084 1871 L 3968 1815 L 3822 1621 Z"/>
    <path id="path_135" data-area="284.5" data-order="135" fill-opacity="0.100" d="M 2998 1798 L 2995 1795 L 2986 1795 L 2985 1796 L 2978 1796 L 2977 1797 L 2971 1797 L 2970 1798 L 2936 1802 L 2935 1803 L 2932 1803 L 2933 1804 L 2932 1805 L 2942 1805 L 2943 1804 L 2951 1804 L 2952 1803 L 2960 1803 L 2961 1802 L 2994 1802 Z"/>
    <path id="path_136" data-area="277.5" data-order="136" fill-opacity="0.100" d="M 2997 1797 L 2993 1802 L 2961 1802 L 2960 1803 L 2952 1803 L 2951 1804 L 2943 1804 L 2942 1805 L 2934 1805 L 2933 1804 L 2936 1802 L 2948 1801 L 2949 1800 L 2956 1800 L 2957 1799 L 2963 1799 L 2964 1798 L 2970 1798 L 2971 1797 L 2977 1797 L 2978 1796 L 2985 1796 L 2986 1795 L 2995 1795 Z"/>
    <path id="path_137" data-area="258.0" data-order="137" fill-opacity="0.100" d="M 2922 1889 L 2870 1913 L 2811 1972 L 2778 2037 L 2765 2107 L 2778 2037 L 2811 1973 L 2871 1913 L 2922 1890 L 2767 2107 Z"/>
    <path id="path_138" data-area="166.5" data-order="138" fill-opacity="0.100" d="M 4151 1351 L 4195 1345 L 4231 1353 L 4158 1349 L 4095 1390 L 4068 1456 L 4080 1531 L 4106 1571 L 4155 1606 L 4208 1619 L 4261 1608 L 4317 1560 L 4334 1481 L 4329 1531 L 4311 1568 L 4277 1599 L 4233 1617 L 4185 1616 L 4141 1598 L 4106 1570 L 4078 1526 L 4068 1486 L 4077 1421 L 4107 1378 Z"/>
    <path id="path_139" data-area="136.5" data-order="139" fill-opacity="0.100" d="M 4172 1359 L 4231 1355 L 4166 1361 L 4118 1396 L 4097 1450 L 4108 1515 L 4134 1555 L 4170 1580 L 4212 1591 L 4262 1585 L 4307 1552 L 4331 1482 L 4324 1520 L 4301 1558 L 4278 1577 L 4237 1591 L 4194 1588 L 4156 1572 L 4127 1546 L 4105 1507 L 4097 1474 L 4105 1419 L 4133 1381 Z"/>
    <path id="path_140" data-area="124.0" data-order="140" fill-opacity="0.100" d="M 3985 1596 L 3891 1640 L 3884 1637 L 3877 1645 L 3894 1668 L 3909 1649 L 3985 1598 L 3908 1649 L 3893 1668 L 3878 1642 L 3885 1637 L 3888 1641 L 3913 1632 Z"/>
    <path id="path_141" data-area="19.5" data-order="141" fill-opacity="0.100" d="M 3842 1358 L 3829 1422 L 3874 1419 L 3975 1439 L 3859 1401 L 3846 1387 L 3844 1359 L 3845 1384 L 3858 1401 L 3975 1438 L 3874 1419 L 3830 1422 Z"/>
    <path id="path_142" data-area="18.5" data-order="142" fill-opacity="0.100" d="M 4012 1529 L 3892 1556 L 3848 1556 L 3842 1563 L 3853 1589 L 3877 1573 L 4012 1531 L 3877 1573 L 3853 1588 L 3842 1563 L 3845 1557 L 3898 1555 Z"/>
    <path id="path_143" data-area="4.0" data-order="143" fill-opacity="0.100" d="M 4390 1765 L 4391 1764 L 4392 1765 L 4392 1766 L 4391 1767 L 4390 1766 Z"/>
    <path id="path_144" data-area="3.0" data-order="144" fill-opacity="0.100" d="M 3017 3390 L 3033 3396 L 3211 3409 L 3033 3396 L 3017 3391 L 3211 3407 Z"/>
  </g>
</svg>