<?xml version="1.0" encoding="UTF-8"?>
<svg xmlns="http://www.w3.org/2000/svg" xmlns:ai="http://ns.adobe.com/AdobeIllustrator/10.0/"
     width="8000" height="4500" viewBox="0 0 8000 4500">
  <title>Complete Image Trace with Fills</title>
  <desc>Image trace with fills and strokes - 1 external, 77 total contours</desc>
  
  <metadata>
    <rdf:RDF xmlns:rdf="http://www.w3.org/1999/02/22-rdf-syntax-ns#">
      <cc:Work rdf:about="">
        <dc:format>image/svg+xml</dc:format>
        <dc:title>Complete Vector Trace</dc:title>
      </cc:Work>
    </rdf:RDF>
  </metadata>
  
  <defs>
    <linearGradient id="tone" x1="0%" y1="0%" x2="100%" y2="100%">
      <stop offset="0%" style="stop-color:black;stop-opacity:1" />
      <stop offset="100%" style="stop-color:white;stop-opacity:1" />
    </linearGradient>
  </defs>
  
  <rect width="100%" height="100%" fill="white"/>
  
  <!-- Group for all fill regions -->
  <g id="fills" fill="black" stroke="none">
    <path id="fill_0" data-area="35987501.0" data-aspect="1.78" d="M 0 0 L 0 4499 L 7999 4499 L 7999 0 Z"/>
  </g>
  
  <!-- Group for stroke edges -->
  <g id="edges" fill="none" stroke="#333333" stroke-width="0.5">
    <path id="edge_0" d="M 3022 3389 L 3021 3390 L 3019 3390 L 3019 3392 L 3020 3393 L 3021 3393 L 3022 3394 L 3027 3394 L 3028 3395 L 3038 3395 L 3039 3396 L 3048 3396 L 3049 3397 L 3058 3397 L 3059 3398 L 3069 3398 L 3070 3399 L 3080 3399 L 3081 3400 L 3090 3400 L 3091 3401 L 3101 3401 L 3102 3402 L 3111 3402 L 3112 3403 L 3122 3403 L 3123 3404 L 3133 3404 L 3134 3405 L 3144 3405 L 3145 3406 L 3154 3406 L 3155 3407 L 3165 3407 L 3166 3408 L 3176 3408 L 3177 3409 L 3187 3409 L 3188 3410 L 3198 3410 L 3199 3411 L 3204 3411 L 3205 3410 L 3207 3410 L 3208 3409 L 3209 3409 L 3210 3408 L 3209 3407 L 3208 3407 L 3207 3406 L 3205 3406 L 3204 3405 L 3200 3405 L 3199 3404 L 3190 3404 L 3189 3403 L 3178 3403 L 3177 3402 L 3167 3402 L 3166 3401 L 3157 3401 L 3156 3400 L 3146 3400 L 3145 3399 L 3134 3399 L 3133 3398 L 3123 3398 L 3122 3397 L 3112 3397 L 3111 3396 L 3101 3396 L 3100 3395 L 3090 3395 L 3089 3394 L 3078 3394 L 3077 3393 L 3067 3393 L 3066 3392 L 3055 3392 L 3054 3391 L 3044 3391 L 3043 3390 L 3032 3390 L 3031 3389 Z"/>
  </g>
</svg>