<?xml version="1.0" encoding="UTF-8"?>
<svg xmlns="http://www.w3.org/2000/svg"
     width="5334" height="3000" viewBox="0 0 5334 3000">
  <title>Very Smooth Lines - 35 paths, 3034 points</title>
  <desc>Multi-smoothed clean lines for printing</desc>
  
  <rect width="100%" height="100%" fill="white"/>
  
  <g id="paths" stroke="black" fill="none" stroke-width="0.5">
    <path id="p0" d="M 2701 753 L 2693 755 L 2684 756 L 2676 756 L 2668 758 L 2660 760 L 2652 761 L 2650 769 L 2654 776 L 2656 785 L 2657 794 L 2654 802 L 2647 807 L 2640 811 L 2632 815 L 2625 820 L 2618 825 L 2611 830 L 2604 835 L 2597 842 L 2590 847 L 2584 853 L 2577 859 L 2570 864 L 2564 871 L 2557 877 L 2551 883 L 2544 890 L 2538 896 L 2532 902 L 2525 908 L 2519 914 L 2513 921 L 2507 928 L 2501 934 L 2494 939 L 2487 943 L 2479 944 L 2471 943 L 2464 939 L 2465 931 L 2464 922 L 2457 926 L 2449 929 L 2444 936 L 2439 943 L 2434 950 L 2428 957 L 2422 963 L 2416 970 L 2410 976 L 2404 983 L 2397 990 L 2390 995 L 2384 1002 L 2377 1009 L 2370 1014 L 2365 1021 L 2358 1026 L 2353 1033 L 2346 1039 L 2340 1046 L 2334 1052 L 2327 1058 L 2321 1064 L 2315 1070 L 2308 1076 L 2302 1083 L 2295 1087 L 2290 1094 L 2284 1100 L 2278 1106 L 2271 1113 L 2264 1119 L 2258 1125 L 2251 1131 L 2249 1139 L 2253 1146 L 2261 1147 L 2267 1153 L 2267 1161 L 2267 1169 L 2264 1177 L 2258 1184 L 2252 1190 L 2246 1196 L 2240 1202 L 2234 1208 L 2228 1214 L 2222 1220 L 2216 1226 L 2210 1233 L 2203 1239 L 2195 1242 L 2187 1245 L 2185 1253 L 2181 1260 L 2173 1262 L 2165 1262 L 2157 1261 L 2155 1253 L 2155 1245 L 2147 1243 L 2139 1246 L 2132 1252 L 2126 1258 L 2122 1265 L 2116 1271 L 2110 1278 L 2104 1284 L 2098 1290 L 2093 1297 L 2087 1303 L 2081 1310 L 2075 1317 L 2069 1324 L 2063 1330 L 2058 1337 L 2052 1343 L 2048 1350 L 2042 1357 L 2036 1364 L 2031 1371 L 2025 1378 L 2019 1385 L 2013 1393 L 2008 1400 L 2002 1407 L 1997 1414 L 1992 1421 L 1987 1429 L 1982 1436 L 1977 1443 L 1973 1450 L 1969 1457 L 1966 1465 L 1967 1473 L 1976 1476 L 1984 1476 L 1992 1478 L 1993 1486 L 1993 1494 L 1992 1502 L 1991 1510 L 1989 1518 L 1988 1526 L 1988 1534 L 1986 1542 L 1987 1550 L 1987 1558 L 1987 1566 L 1988 1574 L 1988 1582 L 1988 1590 L 1990 1599 L 1991 1608 L 1993 1616 L 1994 1624 L 1996 1632 L 1998 1640 L 2001 1648 L 2004 1656 L 2006 1664 L 2010 1672 L 2013 1680 L 2017 1688 L 2021 1695 L 2025 1702 L 2029 1709 L 2034 1716 L 2039 1723 L 2044 1730 L 2045 1738 L 2046 1746 L 2046 1754 L 2052 1760 L 2060 1761 L 2068 1760 L 2077 1762 L 2084 1767 L 2091 1773 L 2098 1777 L 2104 1783 L 2111 1787 L 2118 1792 L 2125 1796 L 2132 1800 L 2139 1804 L 2147 1808 L 2155 1812 L 2163 1815 L 2171 1818 L 2179 1821 L 2187 1824 L 2195 1825 L 2203 1827 L 2211 1830 L 2219 1832 L 2227 1833 L 2236 1835 L 2244 1836 L 2252 1836 L 2260 1837 L 2268 1836 L 2276 1838 L 2285 1837 L 2293 1837 L 2301 1837 L 2309 1837 L 2316 1841 L 2324 1837 L 2331 1831 L 2338 1827 L 2346 1825 L 2354 1822 L 2363 1818 L 2371 1814 L 2379 1810 L 2387 1805 L 2395 1801 L 2403 1799 L 2411 1798 L 2419 1799 L 2423 1806 L 2423 1814 L 2422 1822 L 2420 1830 L 2416 1837 L 2417 1845 L 2424 1849 L 2432 1849 L 2438 1856 L 2442 1863 L 2450 1861 L 2454 1853 L 2458 1845 L 2461 1837 L 2464 1829 L 2468 1822 L 2471 1814 L 2475 1805 L 2478 1797 L 2481 1789 L 2484 1780 L 2487 1772 L 2490 1764 L 2493 1755 L 2495 1747 L 2498 1739 L 2500 1731 L 2502 1723 L 2504 1715 L 2507 1707 L 2511 1699 L 2515 1691 L 2519 1684 L 2523 1677 L 2531 1676 L 2539 1675 L 2547 1676 L 2551 1683 L 2551 1691 L 2552 1699 L 2560 1701 L 2568 1701 L 2576 1701 L 2584 1703 L 2591 1709 L 2599 1710 L 2607 1710 L 2614 1715 L 2610 1723 L 2603 1728 L 2597 1734 L 2589 1733 L 2597 1731 L 2590 1727 L 2587 1718 L 2585 1710 L 2586 1718 L 2588 1726 L 2595 1730 L 2603 1727 L 2611 1721 L 2617 1715 L 2610 1711 L 2601 1708 L 2593 1707 L 2592 1699 L 2594 1691 L 2594 1683 L 2595 1674 L 2600 1667 L 2604 1660 L 2608 1652 L 2608 1644 L 2600 1642 L 2592 1641 L 2585 1637 L 2586 1629 L 2586 1621 L 2588 1613 L 2593 1605 L 2601 1603 L 2609 1603 L 2617 1603 L 2620 1611 L 2620 1619 L 2626 1625 L 2634 1622 L 2640 1615 L 2647 1609 L 2653 1602 L 2658 1595 L 2665 1589 L 2671 1582 L 2677 1575 L 2683 1569 L 2688 1562 L 2694 1555 L 2701 1549 L 2706 1542 L 2712 1536 L 2718 1530 L 2724 1523 L 2730 1516 L 2737 1509 L 2742 1502 L 2749 1496 L 2756 1491 L 2764 1491 L 2772 1490 L 2780 1491 L 2787 1495 L 2794 1502 L 2800 1509 L 2802 1517 L 2794 1514 L 2792 1506 L 2796 1513 L 2803 1509 L 2804 1500 L 2804 1491 L 2813 1489 L 2822 1489 L 2830 1488 L 2838 1489 L 2843 1481 L 2836 1476 L 2828 1476 L 2820 1475 L 2813 1471 L 2805 1469 L 2797 1470 L 2788 1471 L 2780 1471 L 2772 1469 L 2768 1462 L 2768 1454 L 2768 1446 L 2767 1438 L 2769 1430 L 2771 1422 L 2775 1415 L 2781 1408 L 2788 1404 L 2796 1405 L 2804 1404 L 2808 1412 L 2809 1420 L 2815 1427 L 2822 1422 L 2827 1415 L 2833 1408 L 2839 1401 L 2845 1395 L 2850 1388 L 2856 1382 L 2863 1376 L 2869 1370 L 2875 1364 L 2881 1357 L 2888 1350 L 2894 1344 L 2900 1338 L 2906 1332 L 2912 1325 L 2918 1319 L 2924 1313 L 2931 1306 L 2937 1300 L 2943 1294 L 2948 1287 L 2954 1281 L 2961 1275 L 2967 1269 L 2973 1263 L 2981 1262 L 2989 1262 L 2997 1262 L 3003 1256 L 3000 1248 L 2994 1242 L 2986 1242 L 2978 1241 L 2972 1235 L 2973 1227 L 2973 1218 L 2972 1210 L 2976 1202 L 2980 1195 L 2986 1188 L 2991 1181 L 2996 1174 L 3001 1165 L 3009 1164 L 3017 1164 L 3025 1161 L 3022 1152 L 3021 1144 L 3021 1136 L 3021 1128 L 3021 1120 L 3023 1112 L 3024 1104 L 3025 1096 L 3026 1088 L 3027 1080 L 3027 1072 L 3027 1064 L 3027 1056 L 3027 1048 L 3027 1040 L 3035 1038 L 3043 1037 L 3047 1030 L 3042 1023 L 3034 1018 L 3027 1012 L 3021 1005 L 3016 998 L 3012 990 L 3010 982 L 3008 974 L 3006 966 L 3002 958 L 3000 950 L 2996 942 L 2993 934 L 2989 927 L 2986 919 L 2982 911 L 2976 904 L 2972 897 L 2968 890 L 2964 882 L 2964 874 L 2964 866 L 2966 858 L 2974 858 L 2982 858 L 2989 854 L 2985 847 L 2979 841 L 2972 836 L 2965 831 L 2956 826 L 2948 822 L 2941 817 L 2934 812 L 2926 809 L 2919 805 L 2911 801 L 2903 797 L 2895 793 L 2887 790 L 2879 786 L 2871 783 L 2863 780 L 2855 777 L 2847 775 L 2839 772 L 2830 769 L 2821 767 L 2813 764 L 2805 762 L 2797 761 L 2789 759 L 2781 757 L 2773 756 L 2764 754 L 2756 755 L 2748 754 L 2740 754 L 2732 754 L 2724 754 L 2716 754 L 2731 759 L 2754 765 L 2781 772 L 2807 780 L 2834 787 L 2862 795 L 2892 804 L 2920 813 L 2942 820 L 2955 826 L 2963 831 L 2972 836 L 2980 842 L 2984 849 L 2984 859 L 2978 866 L 2976 875 L 2974 887 L 2975 896 L 2979 908 L 2984 922 L 2990 936 L 2996 948 L 3003 962 L 3010 974 L 3017 988 L 3023 1000 L 3028 1008 L 3034 1016 L 3040 1022 L 3043 1030 L 3044 1039 L 3042 1048 L 3040 1060 L 3037 1075 L 3035 1088 L 3032 1101 L 3030 1113 L 3026 1128 L 3025 1141 L 3024 1150 L 3024 1158 L 3016 1163 L 3009 1167 L 3001 1170 L 2994 1175 L 2988 1183 L 2983 1191 L 2982 1200 L 2984 1213 L 2990 1227 L 2995 1240 L 3000 1250 L 2998 1258 L 2986 1261 L 2975 1264 L 2966 1267 L 2961 1274 L 2954 1280 L 2948 1286 L 2942 1294 L 2936 1300 L 2930 1306 L 2924 1312 L 2917 1317 L 2912 1324 L 2905 1331 L 2899 1338 L 2892 1344 L 2885 1350 L 2879 1358 L 2873 1365 L 2867 1371 L 2860 1376 L 2854 1384 L 2848 1390 L 2842 1396 L 2835 1403 L 2829 1409 L 2825 1416 L 2819 1423 L 2812 1428 L 2807 1421 L 2800 1417 L 2789 1412 L 2781 1410 L 2777 1417 L 2783 1430 L 2788 1443 L 2794 1456 L 2801 1466 L 2809 1466 L 2811 1458 L 2806 1465 L 2807 1457 L 2801 1451 L 2801 1459 L 2804 1451 L 2805 1459 L 2808 1451 L 2810 1459 L 2806 1466 L 2817 1470 L 2829 1475 L 2838 1479 L 2834 1486 L 2824 1491 L 2815 1494 L 2806 1499 L 2798 1499 L 2802 1507 L 2795 1503 L 2789 1497 L 2781 1495 L 2771 1494 L 2761 1494 L 2751 1495 L 2743 1498 L 2738 1505 L 2732 1512 L 2726 1519 L 2719 1526 L 2713 1533 L 2707 1540 L 2701 1547 L 2694 1554 L 2688 1561 L 2682 1567 L 2676 1574 L 2670 1581 L 2664 1587 L 2658 1594 L 2652 1601 L 2645 1608 L 2639 1615 L 2632 1622 L 2624 1624 L 2613 1620 L 2605 1625 L 2602 1637 L 2607 1645 L 2606 1653 L 2602 1661 L 2597 1673 L 2592 1683 L 2588 1694 L 2585 1702 L 2593 1703 L 2586 1707 L 2580 1701 L 2569 1697 L 2555 1690 L 2538 1694 L 2525 1705 L 2511 1722 L 2497 1742 L 2487 1762 L 2478 1782 L 2471 1803 L 2462 1825 L 2454 1844 L 2448 1857 L 2445 1865 L 2438 1861 L 2431 1856 L 2422 1852 L 2414 1847 L 2414 1839 L 2414 1830 L 2409 1822 L 2396 1818 L 2386 1817 L 2375 1818 L 2365 1819 L 2355 1820 L 2346 1823 L 2338 1826 L 2331 1831 L 2323 1836 L 2314 1837 L 2293 1833 L 2273 1829 L 2249 1824 L 2228 1818 L 2206 1812 L 2183 1807 L 2159 1801 L 2137 1795 L 2120 1790 L 2110 1787 L 2102 1781 L 2095 1776 L 2088 1771 L 2081 1765 L 2072 1757 L 2062 1747 L 2053 1738 L 2047 1732 L 2039 1723 L 2033 1714 L 2029 1704 L 2023 1683 L 2015 1658 L 2006 1628 L 1999 1602 L 1991 1575 L 1983 1549 L 1977 1519 L 1971 1496 L 1966 1479 L 1964 1470 L 1967 1462 L 1970 1454 L 1975 1447 L 1980 1437 L 1984 1429 L 1990 1421 L 1996 1414 L 2002 1407 L 2007 1399 L 2013 1390 L 2019 1384 L 2024 1377 L 2030 1371 L 2035 1364 L 2040 1357 L 2047 1349 L 2053 1341 L 2059 1334 L 2065 1327 L 2071 1320 L 2077 1313 L 2082 1306 L 2088 1300 L 2094 1294 L 2100 1287 L 2107 1280 L 2112 1273 L 2118 1267 L 2124 1260 L 2131 1252 L 2138 1247 L 2145 1242 L 2153 1240 L 2163 1246 L 2170 1250 L 2180 1251 L 2190 1249 L 2198 1242 L 2205 1236 L 2211 1230 L 2218 1224 L 2224 1217 L 2228 1210 L 2235 1206 L 2241 1200 L 2247 1194 L 2253 1188 L 2259 1182 L 2261 1174 L 2258 1166 L 2252 1155 L 2247 1147 L 2246 1139 L 2250 1132 L 2256 1125 L 2263 1119 L 2270 1113 L 2276 1107 L 2282 1101 L 2288 1094 L 2294 1088 L 2301 1083 L 2307 1077 L 2313 1071 L 2319 1065 L 2324 1058 L 2332 1052 L 2339 1046 L 2345 1040 L 2351 1034 L 2357 1028 L 2363 1022 L 2369 1014 L 2376 1008 L 2383 1002 L 2390 996 L 2396 989 L 2403 982 L 2410 975 L 2416 968 L 2423 961 L 2429 954 L 2434 947 L 2441 939 L 2446 931 L 2453 925 L 2461 922 L 2469 926 L 2477 931 L 2488 935 L 2498 936 L 2504 930 L 2510 924 L 2516 917 L 2521 909 L 2528 905 L 2534 899 L 2540 893 L 2546 886 L 2553 880 L 2560 874 L 2565 867 L 2572 860 L 2580 854 L 2587 848 L 2595 841 L 2602 836 L 2611 829 L 2620 823 L 2629 816 L 2635 806 L 2641 796 L 2644 786 L 2645 776 L 2636 775 L 2645 773 L 2646 765 L 2640 771 L 2648 772 L 2653 764 "/>
    <path id="p1" d="M 2790 807 L 2790 815 L 2789 823 L 2791 831 L 2799 832 L 2807 832 L 2815 829 L 2816 820 L 2815 811 L 2808 806 L 2800 806 "/>
    <path id="p2" d="M 2472 835 L 2479 840 L 2480 849 L 2478 857 L 2470 858 L 2462 856 L 2454 856 L 2446 855 L 2452 849 L 2455 841 L 2463 836 L 2456 841 L 2450 847 L 2444 853 L 2453 855 L 2462 856 L 2470 857 L 2477 849 L 2477 841 L 2476 833 "/>
    <path id="p3" d="M 2793 918 L 2785 920 L 2778 925 L 2771 930 L 2764 937 L 2758 943 L 2754 950 L 2750 957 L 2747 966 L 2746 974 L 2747 982 L 2747 991 L 2747 999 L 2749 1007 L 2752 1015 L 2756 1022 L 2760 1029 L 2766 1035 L 2772 1041 L 2779 1046 L 2786 1051 L 2794 1054 L 2802 1058 L 2810 1059 L 2818 1060 L 2826 1060 L 2834 1059 L 2842 1058 L 2850 1055 L 2858 1051 L 2865 1045 L 2871 1039 L 2876 1032 L 2881 1025 L 2883 1017 L 2885 1009 L 2886 1001 L 2886 993 L 2886 985 L 2884 977 L 2882 969 L 2879 961 L 2875 954 L 2871 947 L 2866 940 L 2859 935 L 2852 930 L 2845 925 L 2838 920 L 2830 919 L 2822 918 L 2813 918 L 2805 918 L 2816 921 L 2829 924 L 2844 929 L 2857 934 L 2864 939 L 2869 953 L 2871 964 L 2872 975 L 2872 986 L 2873 996 L 2873 1007 L 2873 1018 L 2872 1028 L 2870 1036 L 2863 1045 L 2846 1047 L 2836 1048 L 2825 1048 L 2816 1048 L 2805 1047 L 2795 1047 L 2784 1046 L 2774 1044 L 2768 1038 L 2762 1029 L 2761 1021 L 2760 1010 L 2759 1000 L 2759 989 L 2759 978 L 2759 967 L 2760 957 L 2761 947 L 2763 935 L 2770 930 "/>
    <path id="p4" d="M 2202 956 L 2194 958 L 2187 962 L 2180 966 L 2172 971 L 2165 976 L 2158 983 L 2151 988 L 2145 994 L 2138 998 L 2132 1005 L 2126 1011 L 2119 1017 L 2112 1024 L 2107 1031 L 2103 1038 L 2100 1046 L 2098 1055 L 2100 1064 L 2108 1064 L 2116 1060 L 2124 1056 L 2131 1052 L 2138 1048 L 2145 1044 L 2152 1039 L 2159 1033 L 2166 1028 L 2173 1021 L 2180 1016 L 2187 1010 L 2193 1004 L 2199 998 L 2206 992 L 2212 986 L 2218 980 L 2225 973 L 2231 967 L 2232 959 L 2224 957 L 2216 957 L 2226 958 L 2231 965 L 2226 972 L 2219 978 L 2212 983 L 2206 990 L 2199 996 L 2193 1002 L 2187 1009 L 2180 1014 L 2173 1019 L 2166 1026 L 2159 1032 L 2152 1038 L 2142 1044 L 2133 1049 L 2124 1055 L 2115 1060 L 2107 1063 L 2099 1068 L 2093 1062 L 2100 1067 L 2097 1059 L 2098 1049 L 2103 1038 L 2108 1030 L 2113 1021 L 2120 1016 L 2125 1008 L 2132 1002 L 2139 997 L 2146 991 L 2153 985 L 2160 980 L 2169 973 L 2176 968 "/>
    <path id="p5" d="M 2508 974 L 2502 981 L 2497 988 L 2491 994 L 2485 1000 L 2478 1006 L 2472 1012 L 2466 1019 L 2460 1026 L 2454 1032 L 2448 1038 L 2442 1044 L 2435 1050 L 2429 1056 L 2424 1063 L 2417 1069 L 2410 1076 L 2404 1083 L 2398 1089 L 2392 1095 L 2385 1102 L 2379 1109 L 2373 1115 L 2366 1120 L 2360 1127 L 2355 1134 L 2349 1140 L 2343 1146 L 2336 1153 L 2329 1159 L 2323 1166 L 2317 1173 L 2310 1180 L 2304 1186 L 2298 1192 L 2292 1198 L 2286 1204 L 2280 1211 L 2274 1217 L 2268 1223 L 2262 1229 L 2256 1235 L 2250 1241 L 2244 1248 L 2238 1254 L 2232 1260 L 2226 1266 L 2220 1272 L 2214 1278 L 2208 1285 L 2201 1290 L 2196 1297 L 2190 1303 L 2184 1309 L 2178 1315 L 2172 1321 L 2166 1327 L 2160 1334 L 2154 1340 L 2148 1346 L 2142 1352 L 2135 1358 L 2129 1365 L 2122 1372 L 2116 1379 L 2110 1385 L 2104 1391 L 2098 1397 L 2091 1403 L 2085 1410 L 2079 1416 L 2073 1423 L 2066 1429 L 2061 1437 L 2056 1444 L 2051 1451 L 2047 1459 L 2043 1466 L 2039 1473 L 2034 1481 L 2032 1490 L 2029 1498 L 2027 1506 L 2026 1514 L 2024 1522 L 2022 1530 L 2021 1538 L 2022 1546 L 2022 1554 L 2022 1562 L 2022 1570 L 2022 1578 L 2023 1587 L 2023 1596 L 2025 1604 L 2025 1612 L 2028 1620 L 2030 1628 L 2033 1636 L 2036 1644 L 2039 1652 L 2041 1660 L 2045 1668 L 2049 1675 L 2054 1682 L 2058 1689 L 2062 1696 L 2067 1703 L 2073 1709 L 2079 1717 L 2085 1723 L 2091 1729 L 2097 1735 L 2104 1740 L 2110 1746 L 2117 1751 L 2124 1756 L 2132 1760 L 2139 1765 L 2146 1769 L 2153 1773 L 2161 1777 L 2169 1780 L 2177 1784 L 2185 1786 L 2193 1790 L 2201 1792 L 2209 1794 L 2218 1796 L 2226 1798 L 2234 1799 L 2242 1801 L 2250 1802 L 2258 1803 L 2266 1803 L 2274 1802 L 2282 1803 L 2290 1803 L 2298 1802 L 2306 1800 L 2314 1799 L 2322 1797 L 2330 1794 L 2338 1792 L 2346 1789 L 2353 1785 L 2361 1780 L 2369 1777 L 2376 1773 L 2383 1767 L 2390 1763 L 2396 1756 L 2403 1752 L 2410 1746 L 2416 1740 L 2422 1734 L 2428 1728 L 2434 1722 L 2440 1716 L 2446 1710 L 2452 1703 L 2458 1697 L 2464 1691 L 2470 1685 L 2475 1678 L 2482 1672 L 2488 1666 L 2494 1660 L 2500 1653 L 2506 1647 L 2512 1640 L 2518 1634 L 2524 1628 L 2530 1622 L 2536 1616 L 2542 1609 L 2548 1602 L 2555 1596 L 2561 1590 L 2567 1583 L 2573 1577 L 2580 1570 L 2586 1564 L 2592 1557 L 2598 1551 L 2604 1545 L 2610 1538 L 2616 1532 L 2622 1526 L 2628 1519 L 2634 1513 L 2640 1507 L 2645 1500 L 2652 1495 L 2657 1488 L 2664 1481 L 2671 1475 L 2677 1469 L 2682 1462 L 2689 1456 L 2695 1450 L 2701 1444 L 2706 1437 L 2712 1431 L 2719 1425 L 2725 1419 L 2731 1412 L 2737 1406 L 2743 1400 L 2749 1393 L 2755 1387 L 2761 1381 L 2766 1373 L 2773 1368 L 2779 1362 L 2785 1356 L 2791 1350 L 2796 1343 L 2802 1337 L 2809 1331 L 2815 1325 L 2820 1318 L 2827 1312 L 2832 1305 L 2839 1299 L 2842 1291 L 2842 1283 L 2840 1275 L 2833 1270 L 2825 1270 L 2817 1270 L 2809 1270 L 2801 1270 L 2793 1270 L 2784 1269 L 2776 1269 L 2767 1267 L 2758 1266 L 2749 1265 L 2741 1263 L 2733 1261 L 2725 1259 L 2717 1256 L 2709 1254 L 2701 1251 L 2693 1248 L 2686 1244 L 2678 1241 L 2671 1236 L 2663 1232 L 2656 1227 L 2649 1222 L 2641 1218 L 2635 1212 L 2627 1206 L 2621 1200 L 2615 1194 L 2609 1188 L 2603 1181 L 2597 1174 L 2591 1167 L 2585 1160 L 2581 1153 L 2576 1146 L 2571 1139 L 2567 1132 L 2563 1124 L 2559 1116 L 2555 1109 L 2553 1101 L 2549 1094 L 2547 1086 L 2544 1078 L 2542 1070 L 2540 1062 L 2539 1054 L 2537 1046 L 2536 1038 L 2535 1030 L 2535 1022 L 2535 1013 L 2535 1005 L 2535 997 L 2535 989 L 2535 981 L 2532 973 L 2524 973 L 2521 988 L 2526 1006 L 2533 1026 L 2539 1045 L 2546 1065 L 2553 1085 L 2561 1107 L 2569 1127 L 2575 1142 L 2579 1151 L 2584 1158 L 2591 1166 L 2596 1174 L 2602 1180 L 2608 1187 L 2615 1194 L 2623 1202 L 2631 1208 L 2637 1215 L 2646 1221 L 2653 1225 L 2663 1229 L 2678 1236 L 2699 1244 L 2722 1253 L 2742 1261 L 2762 1270 L 2782 1277 L 2802 1286 L 2819 1293 L 2831 1299 L 2830 1307 L 2823 1313 L 2818 1320 L 2812 1327 L 2805 1333 L 2798 1341 L 2791 1348 L 2785 1354 L 2778 1360 L 2773 1367 L 2767 1374 L 2761 1380 L 2754 1385 L 2748 1393 L 2742 1399 L 2736 1405 L 2730 1411 L 2725 1418 L 2719 1424 L 2711 1430 L 2706 1437 L 2700 1443 L 2694 1450 L 2687 1455 L 2682 1462 L 2676 1468 L 2670 1475 L 2662 1481 L 2657 1488 L 2651 1495 L 2644 1501 L 2637 1506 L 2633 1513 L 2627 1519 L 2620 1526 L 2614 1532 L 2608 1540 L 2602 1546 L 2595 1552 L 2589 1559 L 2583 1566 L 2577 1572 L 2570 1578 L 2564 1585 L 2558 1592 L 2552 1598 L 2545 1603 L 2539 1610 L 2534 1617 L 2528 1623 L 2521 1627 L 2517 1634 L 2511 1641 L 2504 1646 L 2498 1654 L 2491 1661 L 2484 1668 L 2478 1675 L 2472 1682 L 2466 1688 L 2459 1693 L 2454 1700 L 2448 1707 L 2442 1713 L 2436 1719 L 2430 1725 L 2424 1731 L 2416 1736 L 2412 1743 L 2405 1748 L 2398 1755 L 2391 1760 L 2383 1768 L 2372 1769 L 2352 1769 L 2326 1770 L 2296 1769 L 2268 1769 L 2239 1767 L 2211 1766 L 2181 1763 L 2154 1761 L 2134 1758 L 2123 1755 L 2116 1750 L 2109 1745 L 2103 1739 L 2096 1735 L 2090 1729 L 2084 1723 L 2078 1716 L 2072 1708 L 2066 1701 L 2061 1685 L 2058 1666 L 2057 1640 L 2055 1610 L 2054 1582 L 2054 1554 L 2054 1525 L 2054 1495 L 2054 1469 L 2056 1449 L 2058 1439 L 2064 1431 L 2070 1423 L 2076 1417 L 2082 1411 L 2088 1405 L 2095 1399 L 2101 1393 L 2105 1386 L 2112 1382 L 2118 1376 L 2124 1370 L 2130 1363 L 2135 1356 L 2142 1351 L 2148 1345 L 2154 1339 L 2160 1332 L 2167 1326 L 2173 1319 L 2178 1312 L 2185 1306 L 2192 1299 L 2199 1293 L 2205 1287 L 2211 1280 L 2216 1273 L 2224 1267 L 2230 1261 L 2236 1255 L 2242 1248 L 2249 1241 L 2255 1234 L 2262 1228 L 2268 1222 L 2274 1216 L 2281 1209 L 2287 1202 L 2292 1195 L 2299 1190 L 2305 1184 L 2311 1178 L 2317 1172 L 2323 1165 L 2328 1158 L 2335 1153 L 2341 1147 L 2347 1141 L 2353 1135 L 2359 1128 L 2365 1120 L 2372 1115 L 2378 1109 L 2384 1103 L 2390 1097 L 2395 1090 L 2401 1084 L 2408 1078 L 2414 1072 L 2420 1066 L 2427 1059 L 2432 1052 L 2438 1046 L 2445 1040 L 2451 1034 L 2457 1028 L 2463 1022 L 2468 1015 L 2474 1009 L 2481 1002 L 2488 996 L 2494 989 L 2500 983 L 2505 976 "/>
    <path id="p6" d="M 2966 983 L 2967 991 L 2967 999 L 2969 1007 L 2977 1008 L 2985 1008 L 2993 1005 L 2994 997 L 2994 989 L 2990 982 L 2982 982 L 2973 982 "/>
    <path id="p7" d="M 2584 1009 L 2576 1013 L 2575 1021 L 2575 1029 L 2577 1037 L 2586 1038 L 2594 1038 L 2603 1037 L 2611 1034 L 2613 1026 L 2613 1018 L 2610 1010 L 2601 1008 L 2591 1009 "/>
    <path id="p8" d="M 2004 1159 L 2010 1165 L 2011 1173 L 2011 1181 L 2015 1188 L 2016 1196 L 2014 1204 L 2010 1212 L 2005 1219 L 2000 1226 L 1994 1233 L 1988 1239 L 1979 1242 L 1975 1235 L 1976 1227 L 1973 1219 L 1964 1219 L 1956 1219 L 1948 1218 L 1940 1219 L 1932 1223 L 1924 1225 L 1916 1228 L 1907 1230 L 1900 1235 L 1892 1239 L 1885 1243 L 1878 1248 L 1871 1252 L 1864 1258 L 1857 1263 L 1851 1270 L 1845 1276 L 1838 1282 L 1832 1289 L 1826 1297 L 1821 1304 L 1816 1312 L 1812 1319 L 1808 1326 L 1804 1333 L 1801 1341 L 1798 1349 L 1795 1357 L 1793 1365 L 1791 1374 L 1787 1381 L 1779 1382 L 1770 1382 L 1762 1382 L 1754 1380 L 1754 1372 L 1755 1364 L 1758 1356 L 1761 1348 L 1765 1341 L 1769 1333 L 1772 1325 L 1778 1318 L 1783 1311 L 1787 1304 L 1793 1297 L 1799 1290 L 1805 1283 L 1811 1277 L 1817 1271 L 1823 1265 L 1829 1259 L 1835 1253 L 1842 1249 L 1849 1243 L 1856 1239 L 1863 1234 L 1870 1230 L 1877 1226 L 1885 1222 L 1893 1219 L 1901 1215 L 1909 1212 L 1917 1210 L 1925 1207 L 1933 1205 L 1941 1203 L 1949 1201 L 1957 1198 L 1964 1194 L 1971 1188 L 1978 1182 L 1984 1176 L 1990 1170 L 1996 1164 L 1989 1169 L 1983 1176 L 1977 1182 L 1970 1188 L 1956 1195 L 1944 1200 L 1931 1205 L 1919 1211 L 1906 1216 L 1893 1222 L 1879 1228 L 1866 1234 L 1856 1238 L 1847 1244 L 1838 1250 L 1830 1256 L 1823 1263 L 1817 1269 L 1810 1275 L 1803 1282 L 1797 1289 L 1792 1296 L 1786 1304 L 1780 1314 L 1773 1327 L 1769 1335 L 1765 1342 L 1759 1355 L 1754 1368 L 1752 1376 L 1765 1365 L 1772 1357 L 1780 1349 L 1787 1341 L 1795 1332 L 1804 1322 L 1812 1313 L 1819 1305 L 1825 1297 L 1830 1290 L 1834 1283 L 1841 1278 L 1848 1272 L 1853 1265 L 1860 1260 L 1867 1254 L 1877 1249 L 1886 1247 L 1897 1246 L 1910 1244 L 1922 1243 L 1934 1242 L 1945 1241 L 1957 1241 L 1968 1240 L 1976 1240 L 1984 1241 L 1990 1235 L 1997 1228 L 2003 1221 L 2006 1210 L 2006 1202 L 2008 1194 L 2009 1181 L 2010 1167 L 2010 1159 L 2002 1157 "/>
    <path id="p9" d="M 2755 1182 L 2753 1190 L 2753 1198 L 2753 1206 L 2753 1214 L 2761 1218 L 2769 1218 L 2777 1216 L 2780 1208 L 2780 1200 L 2780 1192 L 2780 1183 L 2771 1181 L 2763 1181 "/>
    <path id="p10" d="M 2803 1188 L 2804 1196 L 2804 1204 L 2804 1212 L 2812 1216 L 2820 1217 L 2828 1216 L 2831 1208 L 2831 1200 L 2830 1192 L 2823 1187 L 2815 1187 "/>
    <path id="p11" d="M 2166 1220 L 2171 1227 L 2163 1229 L 2163 1221 L 2167 1228 L 2172 1221 "/>
    <path id="p12" d="M 1961 1257 L 1965 1264 L 1963 1272 L 1957 1278 L 1951 1284 L 1946 1292 L 1941 1299 L 1935 1305 L 1931 1312 L 1925 1319 L 1919 1326 L 1915 1333 L 1909 1341 L 1904 1348 L 1899 1355 L 1894 1362 L 1889 1369 L 1884 1376 L 1878 1383 L 1874 1391 L 1870 1398 L 1864 1404 L 1861 1412 L 1857 1419 L 1851 1426 L 1843 1427 L 1850 1423 L 1843 1418 L 1844 1410 L 1844 1402 L 1845 1394 L 1847 1386 L 1848 1378 L 1850 1370 L 1853 1362 L 1856 1354 L 1859 1346 L 1863 1339 L 1867 1331 L 1871 1324 L 1876 1317 L 1881 1310 L 1888 1303 L 1894 1297 L 1900 1291 L 1907 1285 L 1914 1280 L 1921 1275 L 1928 1271 L 1935 1267 L 1943 1263 L 1951 1262 L 1959 1262 L 1948 1262 L 1937 1266 L 1928 1270 L 1919 1276 L 1912 1280 L 1904 1286 L 1897 1292 L 1890 1299 L 1884 1306 L 1877 1313 L 1873 1321 L 1870 1329 L 1866 1341 L 1861 1353 L 1857 1363 L 1853 1374 L 1850 1384 L 1847 1395 L 1844 1405 L 1841 1415 L 1845 1422 L 1853 1423 L 1857 1415 L 1862 1407 L 1867 1400 L 1872 1393 L 1876 1386 L 1881 1379 L 1886 1371 L 1890 1363 L 1897 1356 L 1902 1349 L 1908 1341 L 1914 1333 L 1918 1326 L 1924 1319 L 1930 1311 L 1936 1304 L 1941 1297 L 1947 1291 L 1952 1284 L 1957 1277 L 1962 1270 L 1966 1263 L 1961 1256 "/>
    <path id="p13" d="M 2993 1334 L 2999 1340 L 3000 1348 L 3000 1356 L 2994 1362 L 2986 1363 L 2978 1363 L 2970 1361 L 2974 1354 L 2978 1346 L 2984 1339 L 2991 1335 L 2983 1340 L 2977 1346 L 2971 1353 L 2980 1353 L 2987 1346 L 2993 1339 L 2997 1332 "/>
    <path id="p14" d="M 3613 1387 L 3620 1393 L 3625 1400 L 3628 1408 L 3630 1416 L 3633 1424 L 3634 1432 L 3627 1437 L 3631 1430 L 3624 1434 L 3615 1431 L 3607 1427 L 3599 1424 L 3592 1420 L 3597 1412 L 3605 1409 L 3609 1401 L 3612 1393 L 3604 1400 L 3598 1407 L 3594 1414 L 3596 1422 L 3606 1426 L 3615 1429 L 3623 1432 L 3630 1436 L 3633 1428 L 3630 1417 L 3626 1410 L 3624 1401 L 3621 1393 L 3617 1386 "/>
    <path id="p15" d="M 2911 1415 L 2917 1421 L 2918 1429 L 2918 1437 L 2912 1443 L 2904 1444 L 2896 1444 L 2888 1442 L 2892 1435 L 2896 1427 L 2902 1420 L 2909 1416 L 2901 1421 L 2895 1427 L 2890 1434 L 2898 1434 L 2905 1427 L 2911 1420 L 2914 1412 "/>
    <path id="p16" d="M 1794 1470 L 1794 1479 L 1794 1487 L 1795 1495 L 1803 1497 L 1811 1492 L 1817 1485 L 1821 1478 L 1820 1470 L 1812 1469 L 1802 1469 L 1813 1469 L 1820 1473 L 1817 1481 L 1812 1489 L 1804 1494 L 1797 1498 L 1793 1491 "/>
    <path id="p17" d="M 1741 1478 L 1747 1486 L 1749 1494 L 1751 1502 L 1754 1510 L 1761 1515 L 1769 1516 L 1777 1520 L 1776 1528 L 1771 1535 L 1765 1541 L 1759 1548 L 1753 1554 L 1748 1561 L 1744 1568 L 1737 1573 L 1741 1566 L 1733 1565 L 1726 1561 L 1718 1561 L 1710 1560 L 1702 1560 L 1698 1553 L 1700 1545 L 1704 1538 L 1708 1531 L 1712 1524 L 1716 1517 L 1721 1510 L 1725 1502 L 1729 1495 L 1733 1487 L 1741 1484 L 1733 1489 L 1728 1496 L 1721 1506 L 1714 1519 L 1708 1530 L 1702 1538 L 1699 1546 L 1696 1554 L 1704 1559 L 1714 1561 L 1722 1564 L 1731 1564 L 1739 1567 L 1746 1563 L 1750 1556 L 1756 1548 L 1763 1542 L 1768 1535 L 1775 1528 L 1777 1520 L 1771 1513 L 1764 1505 L 1758 1497 L 1750 1488 L 1747 1479 "/>
    <path id="p18" d="M 2737 1597 L 2742 1604 L 2743 1612 L 2743 1620 L 2740 1628 L 2732 1630 L 2724 1630 L 2715 1629 L 2716 1621 L 2720 1613 L 2726 1607 L 2733 1602 L 2726 1606 L 2720 1612 L 2713 1618 L 2713 1626 L 2723 1618 L 2730 1612 L 2737 1604 L 2742 1597 "/>
    <path id="p19" d="M 3574 1670 L 3574 1678 L 3574 1686 L 3575 1694 L 3575 1703 L 3576 1711 L 3581 1718 L 3580 1726 L 3576 1733 L 3571 1741 L 3567 1749 L 3562 1756 L 3558 1763 L 3554 1770 L 3550 1777 L 3545 1785 L 3541 1792 L 3536 1799 L 3532 1806 L 3527 1814 L 3522 1821 L 3518 1828 L 3513 1835 L 3508 1842 L 3503 1850 L 3498 1857 L 3493 1864 L 3486 1869 L 3480 1863 L 3480 1855 L 3479 1846 L 3471 1844 L 3463 1843 L 3462 1835 L 3463 1827 L 3471 1823 L 3477 1816 L 3484 1811 L 3489 1804 L 3496 1799 L 3502 1793 L 3508 1787 L 3513 1780 L 3520 1774 L 3525 1767 L 3531 1761 L 3536 1754 L 3542 1748 L 3548 1741 L 3553 1734 L 3558 1727 L 3565 1722 L 3573 1722 L 3565 1719 L 3573 1716 L 3571 1708 L 3575 1715 L 3567 1715 L 3574 1719 L 3566 1720 L 3559 1725 L 3553 1732 L 3546 1740 L 3541 1747 L 3535 1755 L 3529 1762 L 3523 1768 L 3517 1774 L 3512 1782 L 3505 1788 L 3499 1794 L 3493 1801 L 3485 1808 L 3479 1814 L 3471 1818 L 3465 1825 L 3460 1832 L 3459 1840 L 3466 1849 L 3473 1854 L 3482 1862 L 3489 1867 L 3493 1860 L 3500 1852 L 3507 1844 L 3513 1835 L 3517 1828 L 3523 1818 L 3528 1808 L 3533 1801 L 3538 1794 L 3542 1787 L 3548 1777 L 3553 1768 L 3560 1760 L 3565 1750 L 3570 1742 L 3573 1734 L 3577 1727 L 3581 1720 L 3585 1713 L 3590 1706 L 3593 1697 L 3598 1690 L 3601 1681 L 3603 1672 L 3595 1669 L 3587 1669 L 3596 1671 L 3601 1679 L 3597 1688 L 3593 1696 L 3588 1704 L 3582 1712 L 3574 1710 L 3574 1702 "/>
    <path id="p20" d="M 2663 1676 L 2668 1683 L 2668 1691 L 2666 1699 L 2663 1707 L 2655 1710 L 2646 1710 L 2638 1709 L 2641 1701 L 2644 1693 L 2650 1687 L 2657 1682 L 2649 1685 L 2644 1692 L 2639 1699 L 2637 1707 L 2647 1703 L 2654 1697 L 2661 1693 L 2668 1687 L 2668 1679 "/>
    <path id="p21" d="M 1989 1751 L 1997 1754 L 2003 1760 L 2009 1766 L 2017 1769 L 2025 1769 L 2030 1776 L 2026 1783 L 2021 1790 L 2015 1796 L 2009 1802 L 2003 1808 L 1997 1814 L 1990 1821 L 1984 1827 L 1978 1833 L 1972 1839 L 1966 1845 L 1960 1851 L 1953 1856 L 1947 1863 L 1940 1869 L 1934 1875 L 1928 1882 L 1922 1888 L 1916 1894 L 1909 1901 L 1902 1908 L 1896 1914 L 1890 1920 L 1884 1926 L 1878 1932 L 1872 1938 L 1866 1944 L 1859 1949 L 1853 1956 L 1847 1962 L 1840 1968 L 1834 1975 L 1828 1981 L 1821 1987 L 1815 1994 L 1809 2000 L 1803 2006 L 1797 2012 L 1791 2018 L 1785 2024 L 1778 2030 L 1772 2036 L 1766 2042 L 1760 2048 L 1754 2054 L 1748 2060 L 1742 2066 L 1736 2072 L 1730 2078 L 1724 2084 L 1718 2090 L 1712 2096 L 1706 2102 L 1699 2108 L 1693 2114 L 1687 2120 L 1681 2126 L 1674 2130 L 1666 2131 L 1658 2128 L 1652 2122 L 1645 2116 L 1640 2109 L 1634 2102 L 1633 2094 L 1637 2086 L 1646 2088 L 1654 2086 L 1661 2082 L 1668 2076 L 1675 2068 L 1682 2062 L 1688 2056 L 1694 2050 L 1700 2044 L 1707 2038 L 1713 2032 L 1719 2026 L 1726 2020 L 1732 2013 L 1738 2007 L 1745 2002 L 1752 1995 L 1758 1988 L 1764 1982 L 1768 1974 L 1769 1966 L 1769 1958 L 1768 1950 L 1776 1949 L 1785 1949 L 1794 1949 L 1802 1946 L 1809 1940 L 1816 1934 L 1822 1927 L 1829 1921 L 1835 1915 L 1841 1909 L 1848 1903 L 1854 1897 L 1860 1890 L 1867 1885 L 1873 1878 L 1880 1872 L 1886 1866 L 1893 1860 L 1899 1854 L 1906 1847 L 1912 1840 L 1919 1835 L 1925 1829 L 1931 1822 L 1938 1817 L 1944 1811 L 1949 1804 L 1956 1799 L 1963 1793 L 1969 1787 L 1975 1780 L 1982 1774 L 1985 1766 L 1985 1758 L 1983 1766 L 1980 1774 L 1972 1781 L 1966 1788 L 1960 1794 L 1952 1800 L 1945 1805 L 1941 1812 L 1935 1818 L 1928 1824 L 1922 1831 L 1915 1838 L 1907 1844 L 1901 1850 L 1895 1857 L 1887 1863 L 1881 1869 L 1874 1876 L 1868 1883 L 1861 1889 L 1853 1895 L 1848 1902 L 1842 1908 L 1835 1914 L 1827 1920 L 1821 1926 L 1816 1933 L 1810 1939 L 1803 1943 L 1794 1951 L 1786 1960 L 1776 1969 L 1767 1977 L 1761 1984 L 1755 1990 L 1748 1996 L 1743 2003 L 1736 2008 L 1729 2014 L 1724 2021 L 1717 2027 L 1710 2032 L 1705 2039 L 1699 2045 L 1692 2051 L 1685 2056 L 1680 2063 L 1674 2069 L 1668 2075 L 1662 2081 L 1653 2084 L 1643 2087 L 1632 2090 L 1632 2099 L 1636 2106 L 1644 2113 L 1651 2121 L 1658 2127 L 1666 2130 L 1674 2129 L 1681 2125 L 1687 2119 L 1693 2111 L 1700 2106 L 1707 2100 L 1713 2094 L 1719 2088 L 1725 2082 L 1731 2076 L 1737 2070 L 1743 2064 L 1749 2057 L 1756 2051 L 1762 2045 L 1768 2038 L 1775 2031 L 1782 2026 L 1788 2020 L 1794 2014 L 1800 2008 L 1807 2001 L 1813 1995 L 1819 1989 L 1825 1983 L 1831 1977 L 1837 1971 L 1843 1965 L 1849 1957 L 1856 1951 L 1864 1945 L 1869 1938 L 1876 1933 L 1882 1927 L 1888 1921 L 1894 1915 L 1900 1909 L 1906 1903 L 1912 1897 L 1918 1891 L 1924 1885 L 1930 1879 L 1936 1873 L 1942 1866 L 1948 1860 L 1956 1854 L 1962 1848 L 1968 1842 L 1974 1836 L 1980 1830 L 1986 1824 L 1991 1817 L 1997 1811 L 2004 1805 L 2011 1799 L 2017 1793 L 2022 1785 L 2028 1778 L 2028 1769 L 2019 1767 L 2012 1763 L 2004 1760 L 1998 1754 L 1990 1751 "/>
    <path id="p22" d="M 1565 1794 L 1570 1801 L 1570 1809 L 1567 1818 L 1565 1826 L 1565 1834 L 1564 1842 L 1563 1850 L 1563 1858 L 1562 1866 L 1562 1874 L 1561 1882 L 1555 1888 L 1547 1888 L 1539 1888 L 1530 1888 L 1525 1881 L 1526 1873 L 1530 1865 L 1533 1857 L 1536 1848 L 1541 1840 L 1544 1832 L 1548 1824 L 1551 1815 L 1559 1813 L 1567 1811 L 1568 1803 L 1563 1810 L 1555 1809 L 1563 1806 L 1559 1799 L 1559 1807 L 1566 1802 L 1565 1810 L 1556 1813 L 1549 1825 L 1545 1833 L 1541 1841 L 1538 1849 L 1534 1857 L 1530 1865 L 1527 1873 L 1523 1881 L 1533 1871 L 1537 1864 L 1543 1857 L 1547 1849 L 1552 1842 L 1557 1833 L 1562 1826 L 1567 1817 L 1568 1809 L 1570 1801 L 1569 1793 "/>
    <path id="p23" d="M 3403 1854 L 3403 1862 L 3404 1870 L 3408 1877 L 3416 1876 L 3423 1871 L 3429 1864 L 3433 1856 L 3426 1852 L 3418 1853 L 3428 1857 L 3429 1865 L 3421 1871 L 3413 1875 L 3405 1878 "/>
    <path id="p24" d="M 3155 1860 L 3163 1863 L 3170 1868 L 3177 1872 L 3184 1879 L 3191 1885 L 3199 1892 L 3206 1899 L 3209 1907 L 3202 1911 L 3194 1911 L 3186 1911 L 3178 1908 L 3172 1901 L 3165 1896 L 3158 1892 L 3151 1887 L 3152 1879 L 3152 1871 L 3152 1863 L 3157 1873 L 3162 1883 L 3170 1894 L 3182 1903 L 3192 1906 L 3200 1906 L 3208 1907 L 3207 1899 L 3200 1893 L 3193 1887 L 3186 1881 L 3179 1875 L 3173 1868 L 3166 1863 L 3159 1859 "/>
    <path id="p25" d="M 2304 1910 L 2311 1915 L 2319 1917 L 2327 1918 L 2330 1927 L 2323 1933 L 2315 1938 L 2308 1942 L 2300 1943 L 2297 1935 L 2297 1927 L 2299 1918 L 2297 1927 L 2296 1935 L 2300 1942 L 2308 1941 L 2316 1937 L 2324 1930 L 2329 1923 L 2321 1916 L 2313 1914 L 2307 1908 "/>
    <path id="p26" d="M 3002 1934 L 3010 1935 L 3018 1934 L 3025 1940 L 3022 1948 L 3015 1952 L 3007 1953 L 2999 1952 L 2999 1944 L 3003 1952 L 3013 1950 L 3021 1946 L 3027 1939 L 3019 1935 L 3010 1934 L 3002 1934 "/>
    <path id="p27" d="M 3180 1935 L 3186 1941 L 3187 1949 L 3185 1957 L 3183 1965 L 3177 1971 L 3170 1976 L 3163 1980 L 3155 1984 L 3147 1988 L 3140 1992 L 3133 1996 L 3126 2000 L 3119 2004 L 3111 2008 L 3105 2014 L 3105 2022 L 3105 2030 L 3105 2038 L 3112 2043 L 3120 2043 L 3127 2049 L 3123 2056 L 3115 2061 L 3106 2062 L 3099 2058 L 3099 2050 L 3103 2042 L 3102 2034 L 3094 2031 L 3086 2030 L 3078 2030 L 3070 2030 L 3062 2032 L 3054 2035 L 3046 2037 L 3038 2039 L 3030 2038 L 3022 2036 L 3014 2033 L 3007 2029 L 3001 2023 L 2997 2016 L 2993 2007 L 2993 1998 L 2994 1990 L 3002 1990 L 3011 1994 L 3018 1998 L 3026 2000 L 3034 2001 L 3042 2001 L 3050 2000 L 3057 1996 L 3064 1992 L 3072 1989 L 3079 1985 L 3087 1982 L 3094 1978 L 3101 1974 L 3109 1969 L 3117 1966 L 3125 1962 L 3132 1958 L 3139 1953 L 3147 1951 L 3154 1947 L 3161 1943 L 3169 1939 L 3176 1935 L 3166 1940 L 3155 1945 L 3139 1951 L 3121 1958 L 3102 1964 L 3084 1971 L 3065 1978 L 3047 1984 L 3031 1989 L 3019 1991 L 3011 1992 L 3004 1988 L 2996 1988 L 3002 1982 L 3001 1974 L 2999 1982 L 2998 1974 L 2993 1981 L 3000 1975 L 3000 1983 L 2994 1989 L 2993 1999 L 2995 2008 L 3003 2016 L 3011 2020 L 3022 2024 L 3035 2027 L 3046 2028 L 3056 2029 L 3067 2029 L 3077 2029 L 3085 2030 L 3096 2030 L 3101 2037 L 3100 2046 L 3102 2056 L 3108 2062 L 3117 2057 L 3124 2053 L 3129 2046 L 3121 2044 L 3112 2042 L 3104 2039 L 3104 2030 L 3109 2022 L 3119 2011 L 3132 1999 L 3141 1993 L 3149 1987 L 3156 1982 L 3168 1975 L 3175 1966 L 3181 1957 L 3183 1945 L 3184 1935 "/>
    <path id="p28" d="M 3267 1951 L 3276 1952 L 3284 1952 L 3292 1954 L 3294 1962 L 3287 1966 L 3280 1972 L 3272 1975 L 3265 1969 L 3264 1961 L 3265 1970 L 3272 1974 L 3279 1970 L 3286 1965 L 3292 1959 L 3288 1952 L 3278 1950 L 3270 1950 "/>
    <path id="p29" d="M 2285 2032 L 2285 2040 L 2285 2048 L 2285 2056 L 2292 2060 L 2299 2056 L 2306 2051 L 2312 2045 L 2316 2038 L 2311 2031 L 2303 2031 L 2295 2031 L 2304 2031 L 2312 2032 L 2314 2041 L 2308 2047 L 2301 2053 L 2294 2057 L 2286 2059 "/>
    <path id="p30" d="M 2949 2106 L 2957 2107 L 2965 2109 L 2973 2112 L 2977 2119 L 2970 2123 L 2962 2126 L 2954 2128 L 2946 2127 L 2946 2119 L 2946 2111 L 2947 2120 L 2951 2127 L 2960 2125 L 2970 2120 L 2978 2117 L 2975 2109 L 2966 2109 L 2958 2105 L 2950 2106 "/>
    <path id="p31" d="M 2334 2159 L 2335 2167 L 2339 2174 L 2346 2179 L 2354 2183 L 2360 2177 L 2360 2169 L 2359 2160 L 2351 2158 L 2343 2158 L 2346 2167 L 2351 2175 L 2343 2177 L 2336 2173 L 2332 2166 L 2333 2158 "/>
    <path id="p32" d="M 2759 2172 L 2767 2175 L 2775 2180 L 2781 2186 L 2774 2191 L 2766 2193 L 2758 2193 L 2755 2185 L 2756 2177 L 2758 2186 L 2764 2192 L 2772 2189 L 2780 2188 L 2784 2181 L 2777 2177 L 2783 2183 L 2775 2181 L 2770 2174 L 2763 2170 "/>
    <path id="p33" d="M 2548 2219 L 2553 2226 L 2546 2230 L 2547 2222 L 2547 2230 L 2555 2226 L 2551 2218 "/>
    <path id="p34" d="M 1992 2241 L 1982 2243 L 1980 2252 L 1981 2260 L 1981 2268 L 1981 2276 L 1983 2284 L 1987 2292 L 1988 2300 L 1987 2308 L 1988 2316 L 1988 2324 L 1996 2328 L 2004 2330 L 2012 2331 L 2020 2332 L 2028 2333 L 2037 2334 L 2045 2335 L 2053 2336 L 2061 2337 L 2069 2338 L 2077 2339 L 2085 2339 L 2093 2339 L 2101 2341 L 2109 2341 L 2118 2342 L 2126 2342 L 2134 2343 L 2142 2343 L 2150 2344 L 2158 2343 L 2166 2344 L 2174 2344 L 2182 2344 L 2190 2344 L 2198 2344 L 2206 2344 L 2214 2344 L 2222 2344 L 2230 2344 L 2238 2345 L 2246 2347 L 2255 2346 L 2263 2345 L 2271 2345 L 2279 2345 L 2287 2344 L 2296 2344 L 2304 2341 L 2296 2342 L 2288 2341 L 2280 2343 L 2272 2343 L 2264 2344 L 2256 2344 L 2248 2345 L 2240 2344 L 2248 2343 L 2256 2341 L 2264 2342 L 2272 2340 L 2280 2340 L 2288 2340 L 2296 2339 L 2288 2338 L 2280 2339 L 2272 2339 L 2264 2340 L 2256 2340 L 2248 2341 L 2240 2341 L 2232 2341 L 2224 2342 L 2216 2342 L 2207 2342 L 2199 2342 L 2191 2342 L 2182 2341 L 2190 2340 L 2198 2340 L 2206 2340 L 2214 2340 L 2222 2340 L 2230 2340 L 2238 2339 L 2246 2339 L 2254 2337 L 2262 2338 L 2270 2336 L 2279 2337 L 2287 2335 L 2295 2334 L 2287 2334 L 2279 2335 L 2271 2335 L 2263 2336 L 2255 2336 L 2247 2337 L 2239 2337 L 2231 2336 L 2222 2338 L 2214 2338 L 2205 2338 L 2197 2338 L 2189 2338 L 2181 2337 L 2189 2336 L 2197 2336 L 2205 2336 L 2213 2335 L 2221 2336 L 2229 2335 L 2237 2335 L 2246 2335 L 2254 2334 L 2262 2334 L 2253 2334 L 2245 2332 L 2237 2333 L 2229 2333 L 2221 2334 L 2213 2334 L 2205 2334 L 2197 2334 L 2188 2334 L 2180 2332 L 2179 2324 L 2179 2316 L 2179 2308 L 2183 2301 L 2184 2293 L 2184 2285 L 2189 2278 L 2197 2279 L 2203 2272 L 2195 2270 L 2191 2263 L 2183 2260 L 2175 2259 L 2167 2258 L 2159 2257 L 2151 2256 L 2143 2255 L 2135 2254 L 2127 2253 L 2119 2252 L 2111 2251 L 2103 2250 L 2095 2248 L 2087 2248 L 2079 2247 L 2071 2246 L 2063 2246 L 2055 2244 L 2047 2244 L 2039 2244 L 2031 2243 L 2023 2242 L 2015 2241 L 2007 2242 L 2020 2244 L 2041 2247 L 2064 2251 L 2085 2254 L 2108 2257 L 2130 2260 L 2154 2262 L 2175 2266 L 2190 2267 L 2198 2268 L 2202 2275 L 2193 2284 L 2189 2295 L 2186 2308 L 2183 2320 L 2182 2329 L 2189 2333 L 2197 2333 L 2205 2333 L 2213 2333 L 2221 2333 L 2229 2333 L 2237 2333 L 2229 2333 L 2221 2335 L 2213 2335 L 2205 2335 L 2197 2334 L 2189 2335 L 2181 2335 L 2189 2336 L 2197 2337 L 2205 2337 L 2213 2337 L 2221 2336 L 2229 2336 L 2237 2336 L 2245 2336 L 2253 2335 L 2261 2335 L 2269 2334 L 2277 2334 L 2285 2333 L 2276 2336 L 2268 2335 L 2259 2337 L 2251 2337 L 2243 2337 L 2234 2338 L 2226 2338 L 2217 2339 L 2209 2339 L 2201 2339 L 2193 2339 L 2184 2339 L 2193 2341 L 2201 2341 L 2209 2341 L 2218 2341 L 2226 2341 L 2234 2340 L 2242 2340 L 2250 2339 L 2258 2339 L 2266 2339 L 2274 2338 L 2282 2337 L 2291 2337 L 2299 2336 L 2291 2339 L 2283 2339 L 2275 2340 L 2267 2340 L 2259 2341 L 2251 2341 L 2243 2342 L 2251 2344 L 2259 2343 L 2267 2343 L 2275 2342 L 2283 2342 L 2291 2340 L 2299 2340 L 2291 2342 L 2283 2343 L 2275 2343 L 2267 2344 L 2259 2345 L 2251 2345 L 2243 2345 L 2235 2343 L 2227 2343 L 2219 2343 L 2211 2343 L 2203 2343 L 2195 2342 L 2187 2343 L 2176 2341 L 2161 2340 L 2140 2339 L 2115 2337 L 2094 2335 L 2072 2334 L 2050 2332 L 2026 2330 L 2005 2328 L 1989 2326 L 1980 2326 L 1985 2319 L 1977 2322 L 1984 2318 L 1977 2323 L 1985 2325 L 1986 2315 L 1986 2305 L 1987 2297 "/>
  </g>
</svg>